<svg width="1440" height="1129" viewBox="0 0 1440 1129" fill="none" xmlns="http://www.w3.org/2000/svg">
<g clip-path="url(#clip0_4469_10536)">
<g opacity="0.7">
<path d="M1344.14 226.003C1352.93 234.899 1365.14 239.998 1377.64 239.998H1435.83V223.875H1426.63C1420.37 223.875 1414.37 221.367 1409.96 216.909L1369.86 176.587H1369.82L1409.96 136.258C1414.37 131.801 1420.37 129.292 1426.63 129.292H1435.83V113.17L1377.65 113.17C1365.15 113.17 1352.93 118.269 1344.15 127.165L1295.01 176.581H1294.93L1344.15 225.996L1344.14 226.003ZM1317.74 176.587L1355.62 138.5C1361.39 132.645 1369.43 129.292 1377.66 129.292H1394.18L1347.1 176.581H1347.15L1394.18 223.869H1377.66C1369.43 223.869 1361.4 220.516 1355.62 214.662L1317.68 176.581H1317.74V176.587Z" fill="#F8F8F8"/>
<path d="M1344.14 303.746L1295 353.167H1317.74L1355.61 315.087C1361.39 309.232 1369.42 305.879 1377.65 305.879H1394.17L1347.09 353.167H1369.83L1409.96 312.839C1414.37 308.381 1420.37 305.879 1426.63 305.879H1435.83V289.756H1377.65C1365.14 289.756 1352.93 294.856 1344.14 303.752V303.746Z" fill="#F8F8F8"/>
<path d="M1394.17 47.2946L1377.65 47.2946C1369.42 47.2946 1361.39 43.9418 1355.61 38.0871L1317.67 0.00624084H1294.92L1344.14 49.4219C1352.93 58.3182 1365.14 63.4172 1377.65 63.4172L1435.83 63.4172V47.2946H1426.63C1420.37 47.2946 1414.37 44.7864 1409.96 40.335L1369.86 0.00624084L1347.14 0.00624084L1394.17 47.2946Z" fill="#F8F8F8"/>
<path d="M1019.73 47.2946L1036.26 47.2946L989.227 0.00624084H1011.95L1052.05 40.3287C1056.45 44.7864 1062.46 47.2946 1068.72 47.2946H1087.12C1093.39 47.2946 1099.39 44.7864 1103.79 40.3287L1143.93 0.00624084H1166.66L1119.58 47.2946H1136.11C1144.33 47.2946 1152.36 43.9418 1158.15 38.0871L1196.02 0.00624084H1218.75L1169.62 49.4219C1160.83 58.3182 1148.62 63.4172 1136.11 63.4172L1019.74 63.4172C1007.24 63.4172 995.024 58.3182 986.242 49.4219L937.017 0.00624084L959.776 0.00624084L997.71 38.0871C1003.49 43.9418 1011.52 47.2946 1019.75 47.2946H1019.73Z" fill="#F8F8F8"/>
</g>
<g opacity="0.7">
<path d="M661.815 47.2882L678.338 47.2882L631.297 -0.000114441H654.024L694.124 40.3287C698.524 44.7864 704.525 47.2882 710.793 47.2882H719.994H729.195C735.462 47.2882 741.463 44.78 745.863 40.3223L786.002 -0.00646973H808.735L761.65 47.2882H778.172C786.402 47.2882 794.435 43.9354 800.213 38.0808L838.078 -0.000114441H860.817L811.681 49.4219C802.893 58.3182 790.682 63.4172 778.172 63.4172L661.809 63.4172C649.299 63.4172 637.088 58.3182 628.3 49.4219L579.081 -0.000114441L601.833 -0.000114441L639.768 38.0808C645.546 43.9354 653.579 47.2882 661.809 47.2882H661.815Z" fill="#F8F8F8"/>
<path d="M81.718 256.813H4.16565V272.935H81.718C89.9984 272.935 97.7708 276.161 103.625 282.009L174.783 353.167H191.471L262.623 282.009C268.478 276.161 276.256 272.935 284.53 272.935H439.642C447.916 272.935 455.694 276.161 461.549 282.009L532.701 353.167H549.388L620.547 282.009C626.401 276.161 634.174 272.935 642.454 272.935H797.552C805.833 272.935 813.605 276.161 819.46 282.009L890.618 353.167H907.306L978.457 282.009C984.312 276.161 992.091 272.935 1000.36 272.935L1155.48 272.935C1163.75 272.935 1171.53 276.161 1177.38 282.009L1248.53 353.167H1265.22L1336.37 282.009C1342.23 276.161 1350 272.935 1358.28 272.935H1435.83V256.813H1358.28C1350 256.813 1342.23 253.587 1336.37 247.739L1265.22 176.587L1336.37 105.429C1342.23 99.5806 1350 96.3548 1358.28 96.3548H1435.83V80.2322H1358.28C1350 80.2322 1342.23 77.0064 1336.37 71.1581L1265.22 0.00640869H1248.53L1177.38 71.1581C1171.52 77.0064 1163.74 80.2322 1155.47 80.2322H1000.36C992.084 80.2322 984.306 77.0064 978.451 71.1581L907.299 0.00640869H890.612L819.454 71.1581C813.599 77.0064 805.826 80.2322 797.546 80.2322L642.448 80.2322C634.167 80.2322 626.395 77.0064 620.54 71.1581L549.382 0.00640869H532.694L461.543 71.1581C455.688 77.0064 447.909 80.2322 439.635 80.2322H284.524C276.25 80.2322 268.471 77.0064 262.616 71.1581L191.465 0.00640869H174.777L103.619 71.1581C97.7644 77.0064 89.9919 80.2322 81.7117 80.2322H4.1593V96.3548H81.7117C89.9919 96.3548 97.7644 99.5806 103.619 105.429L174.777 176.587L103.619 247.739C97.7644 253.587 89.9919 256.813 81.7117 256.813H81.718ZM609.142 270.611L541.038 338.702L472.947 270.611C470.795 268.459 468.471 266.541 466.007 264.871C468.471 263.201 470.795 261.283 472.941 259.13L541.038 191.033L609.136 259.13C611.288 261.283 613.612 263.201 616.076 264.871C613.612 266.541 611.288 268.459 609.142 270.611ZM967.059 270.611L898.962 338.702L830.864 270.611C828.712 268.459 826.388 266.541 823.924 264.871C826.388 263.201 828.712 261.283 830.858 259.13L898.962 191.033L967.053 259.13C969.205 261.283 971.529 263.201 973.993 264.871C971.529 266.541 969.205 268.459 967.059 270.611ZM1324.97 259.137C1327.12 261.289 1329.45 263.207 1331.91 264.877C1329.45 266.547 1327.12 268.465 1324.98 270.618L1256.87 338.709L1188.78 270.618C1186.63 268.465 1184.3 266.547 1181.84 264.877C1184.3 263.207 1186.63 261.289 1188.78 259.137L1256.87 191.04L1324.97 259.137ZM1188.78 82.5563L1256.87 14.459L1324.97 82.5563C1327.12 84.7089 1329.45 86.6266 1331.91 88.2967C1329.45 89.9667 1327.12 91.8844 1324.98 94.037L1256.87 162.128L1188.78 94.037C1186.63 91.8844 1184.3 89.9667 1181.84 88.2967C1184.3 86.6266 1186.63 84.7089 1188.78 82.5563ZM1000.36 96.3548H1155.48C1163.75 96.3548 1171.53 99.5806 1177.38 105.429L1248.54 176.587L1177.38 247.739C1171.53 253.587 1163.75 256.813 1155.48 256.813L1000.36 256.813C992.091 256.813 984.312 253.587 978.457 247.739L907.306 176.587L978.457 105.429C984.312 99.5806 992.091 96.3548 1000.36 96.3548ZM830.858 82.5563L898.962 14.459L967.053 82.5563C969.205 84.7089 971.529 86.6266 973.993 88.2967C971.529 89.9667 969.205 91.8844 967.059 94.037L898.962 162.128L830.864 94.037C828.712 91.8844 826.388 89.9667 823.924 88.2967C826.388 86.6266 828.712 84.7089 830.858 82.5563ZM642.448 96.3548L797.546 96.3548C805.826 96.3548 813.599 99.5806 819.454 105.429L890.612 176.587L819.454 247.739C813.599 253.587 805.826 256.813 797.546 256.813H642.448C634.167 256.813 626.395 253.587 620.54 247.739L549.382 176.587L620.54 105.429C626.395 99.5806 634.167 96.3548 642.448 96.3548ZM472.947 82.5563L541.045 14.459L609.142 82.5563C611.295 84.7089 613.619 86.6266 616.082 88.2967C613.619 89.9667 611.294 91.8844 609.148 94.037L541.045 162.128L472.954 94.037C470.801 91.8844 468.477 89.9667 466.013 88.2967C468.477 86.6266 470.801 84.7089 472.947 82.5563ZM284.53 96.3548H439.642C447.916 96.3548 455.694 99.5806 461.549 105.429L532.701 176.587L461.549 247.739C455.694 253.587 447.916 256.813 439.642 256.813H284.53C276.256 256.813 268.478 253.587 262.623 247.739L191.471 176.587L262.623 105.429C268.478 99.5806 276.256 96.3548 284.53 96.3548ZM115.03 94.0307C112.877 91.8781 110.553 89.9604 108.089 88.2903C110.553 86.6203 112.877 84.7025 115.024 82.5499L183.127 14.4526L251.218 82.5499C253.371 84.7025 255.695 86.6203 258.159 88.2903C255.695 89.9604 253.371 91.8781 251.225 94.0307L183.127 162.122L115.03 94.0307ZM115.03 259.137L183.134 191.04L251.225 259.137C253.377 261.289 255.701 263.207 258.165 264.877C255.701 266.547 253.377 268.465 251.231 270.618L183.134 338.709L115.036 270.618C112.884 268.465 110.56 266.547 108.096 264.877C110.56 263.207 112.884 261.289 115.03 259.137Z" fill="#F8F8F8"/>
<path d="M45.8279 305.879H62.3505C70.5801 305.879 78.6128 309.232 84.3913 315.087L122.326 353.167H145.085L95.8595 303.752C87.0711 294.856 74.86 289.756 62.3505 289.756H4.16565V305.879H13.3668C19.6279 305.879 25.635 308.387 30.0355 312.839L70.142 353.167H92.8686L45.8342 305.879H45.8279Z" fill="#F8F8F8"/>
<path d="M303.898 47.2946L320.427 47.2946L273.392 0.00624084H296.119L336.219 40.3287C340.62 44.7864 346.627 47.2946 352.888 47.2946H371.29C377.551 47.2946 383.558 44.7864 387.959 40.3287L428.097 0.00624084H450.83L403.745 47.2946H420.274C428.497 47.2946 436.53 43.9418 442.315 38.0871L480.186 0.00624084H502.919L453.783 49.4219C444.995 58.3182 432.784 63.4172 420.28 63.4172L303.91 63.4172C291.407 63.4172 279.19 58.3182 270.408 49.4219L221.183 0.00624084L243.941 0.00624084L281.876 38.0871C287.655 43.9418 295.687 47.2946 303.917 47.2946H303.898Z" fill="#F8F8F8"/>
<path d="M95.8594 49.4219L144.996 0.00624084H122.263L84.3913 38.0871C78.6128 43.9418 70.5801 47.2946 62.3505 47.2946H45.8278L92.913 0.00624084H70.1801L30.0418 40.335C25.6412 44.7927 19.6342 47.2946 13.3731 47.2946H4.17194V63.4172L62.3568 63.4172C74.8663 63.4172 87.0773 58.3182 95.8657 49.4219H95.8594Z" fill="#F8F8F8"/>
</g>
</g>
<g clip-path="url(#clip1_4469_10536)">
<g opacity="0.7">
<path d="M95.8594 480.332C87.0711 471.436 74.86 466.337 62.3569 466.337H4.16559V482.46H13.3667C19.6278 482.46 25.6286 484.968 30.0354 489.425L70.1356 529.748H70.1801L30.0418 570.077C25.6349 574.534 19.6342 577.043 13.3731 577.043H4.16559V593.165H62.3505C74.8537 593.165 87.0711 588.066 95.8531 579.17L144.989 529.754H145.072L95.8467 480.339L95.8594 480.332ZM122.256 529.748L84.385 567.835C78.6065 573.69 70.5738 577.043 62.3442 577.043H45.8152L92.9004 529.754H92.8495L45.8152 482.466H62.3442C70.5674 482.466 78.6002 485.819 84.385 491.673L122.32 529.754H122.256V529.748Z" fill="#F8F8F8"/>
<path d="M95.8594 402.589L144.996 353.167H122.263L84.3914 391.248C78.6129 397.103 70.5801 400.456 62.3505 400.456H45.8279L92.9067 353.167H70.1737L30.0354 393.496C25.6349 397.954 19.6278 400.456 13.3667 400.456H4.16559V416.578H62.3505C74.86 416.578 87.0711 411.479 95.8594 402.583V402.589Z" fill="#F8F8F8"/>
<path d="M45.8279 659.04H62.3506C70.5801 659.04 78.6129 662.393 84.3914 668.248L122.326 706.329H145.085L95.8595 656.913C87.0711 648.017 74.86 642.918 62.3506 642.918H4.16559V659.04H13.3667C19.6278 659.04 25.6349 661.549 30.0354 666L70.1356 706.329H92.8623L45.8279 659.04Z" fill="#F8F8F8"/>
<path d="M420.268 659.04H403.739L450.773 706.329H428.047L387.946 666.006C383.546 661.549 377.539 659.04 371.278 659.04H352.875C346.614 659.04 340.607 661.549 336.207 666.006L296.068 706.329H273.335L320.421 659.04H303.892C295.668 659.04 287.636 662.393 281.851 668.248L243.979 706.329H221.246L270.383 656.913C279.171 648.017 291.382 642.918 303.885 642.918H420.255C432.758 642.918 444.976 648.017 453.758 656.913L502.983 706.329H480.224L442.29 668.248C436.511 662.393 428.478 659.04 420.249 659.04H420.268Z" fill="#F8F8F8"/>
</g>
<g opacity="0.7">
<path d="M778.185 659.047H761.662L808.703 706.335H785.976L745.876 666.006C741.476 661.549 735.475 659.047 729.207 659.047H720.006H710.805C704.538 659.047 698.537 661.555 694.137 666.013L653.998 706.341H631.265L678.35 659.047H661.828C653.598 659.047 645.565 662.4 639.787 668.254L601.922 706.335H579.183L628.319 656.913C637.107 648.017 649.318 642.918 661.828 642.918H778.191C790.701 642.918 802.912 648.017 811.7 656.913L860.919 706.335H838.167L800.232 668.254C794.454 662.4 786.421 659.047 778.191 659.047H778.185Z" fill="#F8F8F8"/>
<path d="M1358.28 449.522H1435.83V433.4H1358.28C1350 433.4 1342.23 430.174 1336.37 424.325L1265.22 353.167H1248.53L1177.38 424.325C1171.52 430.174 1163.74 433.4 1155.47 433.4H1000.36C992.084 433.4 984.306 430.174 978.451 424.325L907.299 353.167H890.612L819.454 424.325C813.599 430.174 805.826 433.4 797.546 433.4H642.448C634.167 433.4 626.395 430.174 620.54 424.325L549.382 353.167H532.694L461.543 424.325C455.688 430.174 447.909 433.4 439.635 433.4H284.524C276.25 433.4 268.471 430.174 262.617 424.325L191.471 353.167H174.783L103.626 424.325C97.7708 430.174 89.9984 433.4 81.718 433.4H4.16559V449.522H81.718C89.9984 449.522 97.7708 452.748 103.626 458.596L174.783 529.748L103.626 600.906C97.7708 606.754 89.9984 609.98 81.718 609.98H4.16559V626.103H81.718C89.9984 626.103 97.7708 629.329 103.626 635.177L174.783 706.329H191.471L262.623 635.177C268.478 629.329 276.256 626.103 284.53 626.103H439.642C447.916 626.103 455.694 629.329 461.549 635.177L532.701 706.329H549.388L620.547 635.177C626.401 629.329 634.174 626.103 642.454 626.103H797.552C805.833 626.103 813.605 629.329 819.46 635.177L890.618 706.329H907.306L978.457 635.177C984.312 629.329 992.091 626.103 1000.36 626.103H1155.48C1163.75 626.103 1171.53 629.329 1177.38 635.177L1248.54 706.329H1265.22L1336.38 635.177C1342.24 629.329 1350.01 626.103 1358.29 626.103H1435.84V609.98H1358.29C1350.01 609.98 1342.24 606.754 1336.38 600.906L1265.22 529.748L1336.38 458.596C1342.24 452.748 1350.01 449.522 1358.29 449.522H1358.28ZM830.858 435.724L898.962 367.633L967.053 435.724C969.205 437.876 971.529 439.794 973.993 441.464C971.529 443.134 969.205 445.052 967.059 447.204L898.962 515.302L830.865 447.204C828.712 445.052 826.388 443.134 823.924 441.464C826.388 439.794 828.712 437.876 830.858 435.724ZM472.941 435.724L541.038 367.633L609.136 435.724C611.288 437.876 613.612 439.794 616.076 441.464C613.612 443.134 611.288 445.052 609.142 447.204L541.038 515.302L472.947 447.204C470.795 445.052 468.471 443.134 466.007 441.464C468.471 439.794 470.795 437.876 472.941 435.724ZM115.03 447.198C112.877 445.046 110.553 443.128 108.09 441.458C110.553 439.788 112.877 437.87 115.024 435.717L183.127 367.626L251.218 435.717C253.371 437.87 255.695 439.788 258.159 441.458C255.695 443.128 253.371 445.046 251.225 447.198L183.127 515.295L115.03 447.198ZM251.225 623.779L183.127 691.876L115.03 623.779C112.877 621.626 110.553 619.708 108.09 618.038C110.553 616.368 112.877 614.451 115.024 612.298L183.127 544.207L251.218 612.298C253.371 614.451 255.695 616.368 258.159 618.038C255.695 619.708 253.371 621.626 251.225 623.779ZM439.635 609.98H284.524C276.25 609.98 268.471 606.754 262.617 600.906L191.465 529.748L262.617 458.596C268.471 452.748 276.25 449.522 284.524 449.522H439.635C447.909 449.522 455.688 452.748 461.543 458.596L532.694 529.748L461.543 600.906C455.688 606.754 447.909 609.98 439.635 609.98ZM609.142 623.779L541.038 691.876L472.947 623.779C470.795 621.626 468.471 619.708 466.007 618.038C468.471 616.368 470.795 614.451 472.941 612.298L541.038 544.207L609.136 612.298C611.288 614.451 613.612 616.368 616.076 618.038C613.612 619.708 611.288 621.626 609.142 623.779ZM797.552 609.98H642.454C634.174 609.98 626.401 606.754 620.547 600.906L549.388 529.748L620.547 458.596C626.401 452.748 634.174 449.522 642.454 449.522H797.552C805.833 449.522 813.605 452.748 819.46 458.596L890.618 529.748L819.46 600.906C813.605 606.754 805.833 609.98 797.552 609.98ZM967.053 623.779L898.956 691.876L830.858 623.779C828.706 621.626 826.381 619.708 823.918 618.038C826.381 616.368 828.706 614.451 830.852 612.298L898.956 544.207L967.046 612.298C969.199 614.451 971.523 616.368 973.987 618.038C971.523 619.708 969.199 621.626 967.053 623.779ZM1155.47 609.98H1000.36C992.084 609.98 984.306 606.754 978.451 600.906L907.299 529.748L978.451 458.596C984.306 452.748 992.084 449.522 1000.36 449.522H1155.47C1163.74 449.522 1171.52 452.748 1177.38 458.596L1248.53 529.748L1177.38 600.906C1171.52 606.754 1163.74 609.98 1155.47 609.98ZM1324.97 612.304C1327.12 614.457 1329.45 616.375 1331.91 618.045C1329.45 619.715 1327.12 621.632 1324.98 623.785L1256.87 691.882L1188.78 623.785C1186.63 621.632 1184.3 619.715 1181.84 618.045C1184.3 616.375 1186.63 614.457 1188.78 612.304L1256.87 544.213L1324.97 612.304ZM1324.97 447.198L1256.87 515.295L1188.78 447.198C1186.62 445.046 1184.3 443.128 1181.83 441.458C1184.3 439.788 1186.62 437.87 1188.77 435.717L1256.87 367.626L1324.96 435.717C1327.12 437.87 1329.44 439.788 1331.9 441.458C1329.44 443.128 1327.12 445.046 1324.97 447.198Z" fill="#F8F8F8"/>
<path d="M1394.17 400.456H1377.65C1369.42 400.456 1361.39 397.103 1355.61 391.248L1317.67 353.167H1294.92L1344.14 402.583C1352.93 411.479 1365.14 416.578 1377.65 416.578H1435.83V400.456H1426.63C1420.37 400.456 1414.36 397.948 1409.96 393.496L1369.86 353.167H1347.13L1394.17 400.456H1394.17Z" fill="#F8F8F8"/>
<path d="M1136.1 659.04H1119.57L1166.61 706.329H1143.88L1103.78 666.006C1099.38 661.549 1093.37 659.04 1087.11 659.04H1068.71C1062.45 659.04 1056.44 661.549 1052.04 666.006L1011.9 706.329H989.17L1036.25 659.04H1019.73C1011.5 659.04 1003.47 662.393 997.685 668.248L959.814 706.329H937.081L986.217 656.913C995.005 648.017 1007.22 642.918 1019.72 642.918H1136.09C1148.59 642.918 1160.81 648.017 1169.59 656.913L1218.82 706.329H1196.06L1158.12 668.248C1152.35 662.393 1144.31 659.04 1136.08 659.04H1136.1Z" fill="#F8F8F8"/>
<path d="M1344.14 656.913L1295 706.329H1317.74L1355.61 668.248C1361.39 662.393 1369.42 659.04 1377.65 659.04H1394.17L1347.09 706.329H1369.82L1409.96 666C1414.36 661.542 1420.37 659.04 1426.63 659.04H1435.83V642.918H1377.64C1365.13 642.918 1352.92 648.017 1344.13 656.913H1344.14Z" fill="#F8F8F8"/>
</g>
</g>
<g clip-path="url(#clip2_4469_10536)">
<g clip-path="url(#clip3_4469_10536)">
<g opacity="0.7">
<path d="M1344.14 932.003C1352.93 940.899 1365.14 945.998 1377.64 945.998H1435.83V929.875H1426.63C1420.37 929.875 1414.37 927.367 1409.96 922.909L1369.86 882.587H1369.82L1409.96 842.258C1414.37 837.801 1420.37 835.292 1426.63 835.292H1435.83V819.17H1377.65C1365.15 819.17 1352.93 824.269 1344.15 833.165L1295.01 882.581H1294.93L1344.15 931.996L1344.14 932.003ZM1317.74 882.587L1355.62 844.5C1361.39 838.645 1369.43 835.292 1377.66 835.292H1394.18L1347.1 882.581H1347.15L1394.18 929.869H1377.66C1369.43 929.869 1361.4 926.516 1355.62 920.662L1317.68 882.581H1317.74V882.587Z" fill="#F8F8F8"/>
<path d="M1344.14 1009.75L1295 1059.17H1317.74L1355.61 1021.09C1361.39 1015.23 1369.42 1011.88 1377.65 1011.88H1394.17L1347.09 1059.17H1369.83L1409.96 1018.84C1414.37 1014.38 1420.37 1011.88 1426.63 1011.88H1435.83V995.756H1377.65C1365.14 995.756 1352.93 1000.86 1344.14 1009.75V1009.75Z" fill="#F8F8F8"/>
<path d="M1394.17 753.295H1377.65C1369.42 753.295 1361.39 749.942 1355.61 744.087L1317.67 706.006H1294.92L1344.14 755.422C1352.93 764.318 1365.14 769.417 1377.65 769.417H1435.83V753.295H1426.63C1420.37 753.295 1414.37 750.786 1409.96 746.335L1369.86 706.006H1347.14L1394.17 753.295Z" fill="#F8F8F8"/>
<path d="M1019.73 753.295H1036.26L989.227 706.006H1011.95L1052.05 746.329C1056.45 750.786 1062.46 753.295 1068.72 753.295H1087.12C1093.39 753.295 1099.39 750.786 1103.79 746.329L1143.93 706.006H1166.66L1119.58 753.295H1136.11C1144.33 753.295 1152.36 749.942 1158.15 744.087L1196.02 706.006H1218.75L1169.62 755.422C1160.83 764.318 1148.62 769.417 1136.11 769.417H1019.74C1007.24 769.417 995.024 764.318 986.242 755.422L937.017 706.006H959.776L997.71 744.087C1003.49 749.942 1011.52 753.295 1019.75 753.295H1019.73Z" fill="#F8F8F8"/>
</g>
<g opacity="0.7">
<path d="M661.815 753.288H678.338L631.297 706H654.024L694.124 746.329C698.524 750.786 704.525 753.288 710.793 753.288H719.994H729.195C735.462 753.288 741.463 750.78 745.863 746.322L786.002 705.994H808.735L761.65 753.288H778.172C786.402 753.288 794.435 749.935 800.213 744.081L838.078 706H860.817L811.681 755.422C802.893 764.318 790.682 769.417 778.172 769.417H661.809C649.299 769.417 637.088 764.318 628.3 755.422L579.081 706H601.833L639.768 744.081C645.546 749.935 653.579 753.288 661.809 753.288H661.815Z" fill="#F8F8F8"/>
<path d="M81.718 962.813H4.16565V978.935H81.718C89.9984 978.935 97.7708 982.161 103.625 988.009L174.783 1059.17H191.471L262.623 988.009C268.478 982.161 276.256 978.935 284.53 978.935H439.642C447.916 978.935 455.694 982.161 461.549 988.009L532.701 1059.17H549.388L620.547 988.009C626.401 982.161 634.174 978.935 642.454 978.935H797.552C805.833 978.935 813.605 982.161 819.46 988.009L890.618 1059.17H907.306L978.457 988.009C984.312 982.161 992.091 978.935 1000.36 978.935H1155.48C1163.75 978.935 1171.53 982.161 1177.38 988.009L1248.53 1059.17H1265.22L1336.37 988.009C1342.23 982.161 1350 978.935 1358.28 978.935H1435.83V962.813H1358.28C1350 962.813 1342.23 959.587 1336.37 953.739L1265.22 882.587L1336.37 811.429C1342.23 805.581 1350 802.355 1358.28 802.355H1435.83V786.232H1358.28C1350 786.232 1342.23 783.006 1336.37 777.158L1265.22 706.006H1248.53L1177.38 777.158C1171.52 783.006 1163.74 786.232 1155.47 786.232H1000.36C992.084 786.232 984.306 783.006 978.451 777.158L907.299 706.006H890.612L819.454 777.158C813.599 783.006 805.826 786.232 797.546 786.232L642.448 786.232C634.167 786.232 626.395 783.006 620.54 777.158L549.382 706.006H532.694L461.543 777.158C455.688 783.006 447.909 786.232 439.635 786.232H284.524C276.25 786.232 268.471 783.006 262.616 777.158L191.465 706.006H174.777L103.619 777.158C97.7644 783.006 89.9919 786.232 81.7117 786.232H4.1593V802.355H81.7117C89.9919 802.355 97.7644 805.581 103.619 811.429L174.777 882.587L103.619 953.739C97.7644 959.587 89.9919 962.813 81.7117 962.813H81.718ZM609.142 976.611L541.038 1044.7L472.947 976.611C470.795 974.459 468.471 972.541 466.007 970.871C468.471 969.201 470.795 967.283 472.941 965.13L541.038 897.033L609.136 965.13C611.288 967.283 613.612 969.201 616.076 970.871C613.612 972.541 611.288 974.459 609.142 976.611ZM967.059 976.611L898.962 1044.7L830.864 976.611C828.712 974.459 826.388 972.541 823.924 970.871C826.388 969.201 828.712 967.283 830.858 965.13L898.962 897.033L967.053 965.13C969.205 967.283 971.529 969.201 973.993 970.871C971.529 972.541 969.205 974.459 967.059 976.611ZM1324.97 965.137C1327.12 967.289 1329.45 969.207 1331.91 970.877C1329.45 972.547 1327.12 974.465 1324.98 976.618L1256.87 1044.71L1188.78 976.618C1186.63 974.465 1184.3 972.547 1181.84 970.877C1184.3 969.207 1186.63 967.289 1188.78 965.137L1256.87 897.04L1324.97 965.137ZM1188.78 788.556L1256.87 720.459L1324.97 788.556C1327.12 790.709 1329.45 792.627 1331.91 794.297C1329.45 795.967 1327.12 797.884 1324.98 800.037L1256.87 868.128L1188.78 800.037C1186.63 797.884 1184.3 795.967 1181.84 794.297C1184.3 792.627 1186.63 790.709 1188.78 788.556ZM1000.36 802.355H1155.48C1163.75 802.355 1171.53 805.581 1177.38 811.429L1248.54 882.587L1177.38 953.739C1171.53 959.587 1163.75 962.813 1155.48 962.813H1000.36C992.091 962.813 984.312 959.587 978.457 953.739L907.306 882.587L978.457 811.429C984.312 805.581 992.091 802.355 1000.36 802.355ZM830.858 788.556L898.962 720.459L967.053 788.556C969.205 790.709 971.529 792.627 973.993 794.297C971.529 795.967 969.205 797.884 967.059 800.037L898.962 868.128L830.864 800.037C828.712 797.884 826.388 795.967 823.924 794.297C826.388 792.627 828.712 790.709 830.858 788.556ZM642.448 802.355L797.546 802.355C805.826 802.355 813.599 805.581 819.454 811.429L890.612 882.587L819.454 953.739C813.599 959.587 805.826 962.813 797.546 962.813H642.448C634.167 962.813 626.395 959.587 620.54 953.739L549.382 882.587L620.54 811.429C626.395 805.581 634.167 802.355 642.448 802.355ZM472.947 788.556L541.045 720.459L609.142 788.556C611.295 790.709 613.619 792.627 616.082 794.297C613.619 795.967 611.294 797.884 609.148 800.037L541.045 868.128L472.954 800.037C470.801 797.884 468.477 795.967 466.013 794.297C468.477 792.627 470.801 790.709 472.947 788.556ZM284.53 802.355H439.642C447.916 802.355 455.694 805.581 461.549 811.429L532.701 882.587L461.549 953.739C455.694 959.587 447.916 962.813 439.642 962.813H284.53C276.256 962.813 268.478 959.587 262.623 953.739L191.471 882.587L262.623 811.429C268.478 805.581 276.256 802.355 284.53 802.355ZM115.03 800.031C112.877 797.878 110.553 795.96 108.089 794.29C110.553 792.62 112.877 790.703 115.024 788.55L183.127 720.453L251.218 788.55C253.371 790.703 255.695 792.62 258.159 794.29C255.695 795.96 253.371 797.878 251.225 800.031L183.127 868.122L115.03 800.031ZM115.03 965.137L183.134 897.04L251.225 965.137C253.377 967.289 255.701 969.207 258.165 970.877C255.701 972.547 253.377 974.465 251.231 976.618L183.134 1044.71L115.036 976.618C112.884 974.465 110.56 972.547 108.096 970.877C110.56 969.207 112.884 967.289 115.03 965.137Z" fill="#F8F8F8"/>
<path d="M45.8279 1011.88H62.3505C70.5801 1011.88 78.6128 1015.23 84.3913 1021.09L122.326 1059.17H145.085L95.8595 1009.75C87.0711 1000.86 74.86 995.756 62.3505 995.756H4.16565V1011.88H13.3668C19.6279 1011.88 25.635 1014.39 30.0355 1018.84L70.142 1059.17H92.8686L45.8342 1011.88H45.8279Z" fill="#F8F8F8"/>
<path d="M303.898 753.295H320.427L273.392 706.006H296.119L336.219 746.329C340.62 750.786 346.627 753.295 352.888 753.295H371.29C377.551 753.295 383.558 750.786 387.959 746.329L428.097 706.006H450.83L403.745 753.295H420.274C428.497 753.295 436.53 749.942 442.315 744.087L480.186 706.006H502.919L453.783 755.422C444.995 764.318 432.784 769.417 420.28 769.417H303.91C291.407 769.417 279.19 764.318 270.408 755.422L221.183 706.006H243.941L281.876 744.087C287.655 749.942 295.687 753.295 303.917 753.295H303.898Z" fill="#F8F8F8"/>
<path d="M95.8594 755.422L144.996 706.006H122.263L84.3913 744.087C78.6128 749.942 70.5801 753.295 62.3505 753.295H45.8278L92.913 706.006H70.1801L30.0418 746.335C25.6412 750.793 19.6342 753.295 13.3731 753.295H4.17194V769.417H62.3568C74.8663 769.417 87.0773 764.318 95.8657 755.422H95.8594Z" fill="#F8F8F8"/>
</g>
</g>
<g clip-path="url(#clip4_4469_10536)">
<g opacity="0.7">
<path d="M95.8594 1108.59L144.996 1059.17H122.263L84.3914 1097.25C78.6129 1103.1 70.5801 1106.46 62.3505 1106.46H45.8279L92.9067 1059.17H70.1737L30.0354 1099.5C25.6349 1103.95 19.6278 1106.46 13.3667 1106.46H4.16559V1122.58H62.3505C74.86 1122.58 87.0711 1117.48 95.8594 1108.58V1108.59Z" fill="#F8F8F8"/>
</g>
<g opacity="0.7">
<path d="M1358.28 1155.52H1435.83V1139.4H1358.28C1350 1139.4 1342.23 1136.17 1336.37 1130.33L1265.22 1059.17H1248.53L1177.38 1130.33C1171.52 1136.17 1163.74 1139.4 1155.47 1139.4H1000.36C992.084 1139.4 984.306 1136.17 978.451 1130.33L907.299 1059.17H890.612L819.454 1130.33C813.599 1136.17 805.826 1139.4 797.546 1139.4H642.448C634.167 1139.4 626.395 1136.17 620.54 1130.33L549.382 1059.17H532.694L461.543 1130.33C455.688 1136.17 447.909 1139.4 439.635 1139.4H284.524C276.25 1139.4 268.471 1136.17 262.617 1130.33L191.471 1059.17H174.783L103.626 1130.33C97.7708 1136.17 89.9984 1139.4 81.718 1139.4H4.16559V1155.52H81.718C89.9984 1155.52 97.7708 1158.75 103.626 1164.6L174.783 1235.75L103.626 1306.91C97.7708 1312.75 89.9984 1315.98 81.718 1315.98H4.16559V1332.1H81.718C89.9984 1332.1 97.7708 1335.33 103.626 1341.18L174.783 1412.33H191.471L262.623 1341.18C268.478 1335.33 276.256 1332.1 284.53 1332.1H439.642C447.916 1332.1 455.694 1335.33 461.549 1341.18L532.701 1412.33H549.388L620.547 1341.18C626.401 1335.33 634.174 1332.1 642.454 1332.1H797.552C805.833 1332.1 813.605 1335.33 819.46 1341.18L890.618 1412.33H907.306L978.457 1341.18C984.312 1335.33 992.091 1332.1 1000.36 1332.1H1155.48C1163.75 1332.1 1171.53 1335.33 1177.38 1341.18L1248.54 1412.33H1265.22L1336.38 1341.18C1342.24 1335.33 1350.01 1332.1 1358.29 1332.1H1435.84V1315.98H1358.29C1350.01 1315.98 1342.24 1312.75 1336.38 1306.91L1265.22 1235.75L1336.38 1164.6C1342.24 1158.75 1350.01 1155.52 1358.29 1155.52H1358.28ZM830.858 1141.72L898.962 1073.63L967.053 1141.72C969.205 1143.88 971.529 1145.79 973.993 1147.46C971.529 1149.13 969.205 1151.05 967.059 1153.2L898.962 1221.3L830.865 1153.2C828.712 1151.05 826.388 1149.13 823.924 1147.46C826.388 1145.79 828.712 1143.88 830.858 1141.72ZM472.941 1141.72L541.038 1073.63L609.136 1141.72C611.288 1143.88 613.612 1145.79 616.076 1147.46C613.612 1149.13 611.288 1151.05 609.142 1153.2L541.038 1221.3L472.947 1153.2C470.795 1151.05 468.471 1149.13 466.007 1147.46C468.471 1145.79 470.795 1143.88 472.941 1141.72ZM115.03 1153.2C112.877 1151.05 110.553 1149.13 108.09 1147.46C110.553 1145.79 112.877 1143.87 115.024 1141.72L183.127 1073.63L251.218 1141.72C253.371 1143.87 255.695 1145.79 258.159 1147.46C255.695 1149.13 253.371 1151.05 251.225 1153.2L183.127 1221.3L115.03 1153.2ZM251.225 1329.78L183.127 1397.88L115.03 1329.78C112.877 1327.63 110.553 1325.71 108.09 1324.04C110.553 1322.37 112.877 1320.45 115.024 1318.3L183.127 1250.21L251.218 1318.3C253.371 1320.45 255.695 1322.37 258.159 1324.04C255.695 1325.71 253.371 1327.63 251.225 1329.78ZM439.635 1315.98H284.524C276.25 1315.98 268.471 1312.75 262.617 1306.91L191.465 1235.75L262.617 1164.6C268.471 1158.75 276.25 1155.52 284.524 1155.52H439.635C447.909 1155.52 455.688 1158.75 461.543 1164.6L532.694 1235.75L461.543 1306.91C455.688 1312.75 447.909 1315.98 439.635 1315.98ZM609.142 1329.78L541.038 1397.88L472.947 1329.78C470.795 1327.63 468.471 1325.71 466.007 1324.04C468.471 1322.37 470.795 1320.45 472.941 1318.3L541.038 1250.21L609.136 1318.3C611.288 1320.45 613.612 1322.37 616.076 1324.04C613.612 1325.71 611.288 1327.63 609.142 1329.78ZM797.552 1315.98H642.454C634.174 1315.98 626.401 1312.75 620.547 1306.91L549.388 1235.75L620.547 1164.6C626.401 1158.75 634.174 1155.52 642.454 1155.52H797.552C805.833 1155.52 813.605 1158.75 819.46 1164.6L890.618 1235.75L819.46 1306.91C813.605 1312.75 805.833 1315.98 797.552 1315.98ZM967.053 1329.78L898.956 1397.88L830.858 1329.78C828.706 1327.63 826.381 1325.71 823.918 1324.04C826.381 1322.37 828.706 1320.45 830.852 1318.3L898.956 1250.21L967.046 1318.3C969.199 1320.45 971.523 1322.37 973.987 1324.04C971.523 1325.71 969.199 1327.63 967.053 1329.78ZM1155.47 1315.98H1000.36C992.084 1315.98 984.306 1312.75 978.451 1306.91L907.299 1235.75L978.451 1164.6C984.306 1158.75 992.084 1155.52 1000.36 1155.52H1155.47C1163.74 1155.52 1171.52 1158.75 1177.38 1164.6L1248.53 1235.75L1177.38 1306.91C1171.52 1312.75 1163.74 1315.98 1155.47 1315.98ZM1324.97 1318.3C1327.12 1320.46 1329.45 1322.37 1331.91 1324.04C1329.45 1325.71 1327.12 1327.63 1324.98 1329.79L1256.87 1397.88L1188.78 1329.79C1186.63 1327.63 1184.3 1325.71 1181.84 1324.04C1184.3 1322.37 1186.63 1320.46 1188.78 1318.3L1256.87 1250.21L1324.97 1318.3ZM1324.97 1153.2L1256.87 1221.3L1188.78 1153.2C1186.62 1151.05 1184.3 1149.13 1181.83 1147.46C1184.3 1145.79 1186.62 1143.87 1188.77 1141.72L1256.87 1073.63L1324.96 1141.72C1327.12 1143.87 1329.44 1145.79 1331.9 1147.46C1329.44 1149.13 1327.12 1151.05 1324.97 1153.2Z" fill="#F8F8F8"/>
<path d="M1394.17 1106.46H1377.65C1369.42 1106.46 1361.39 1103.1 1355.61 1097.25L1317.67 1059.17H1294.92L1344.14 1108.58C1352.93 1117.48 1365.14 1122.58 1377.65 1122.58H1435.83V1106.46H1426.63C1420.37 1106.46 1414.36 1103.95 1409.96 1099.5L1369.86 1059.17H1347.13L1394.17 1106.46H1394.17Z" fill="#F8F8F8"/>
</g>
</g>
</g>
<defs>
<clipPath id="clip0_4469_10536">
<rect width="1440" height="353.167" fill="white" transform="matrix(-1 0 0 -1 1440 353.167)"/>
</clipPath>
<clipPath id="clip1_4469_10536">
<rect width="1440" height="353.167" fill="white" transform="translate(0 353.167)"/>
</clipPath>
<clipPath id="clip2_4469_10536">
<rect width="1440" height="423" fill="white" transform="translate(0 706)"/>
</clipPath>
<clipPath id="clip3_4469_10536">
<rect width="1440" height="353.167" fill="white" transform="matrix(-1 0 0 -1 1440 1059.17)"/>
</clipPath>
<clipPath id="clip4_4469_10536">
<rect width="1440" height="353.167" fill="white" transform="translate(0 1059.17)"/>
</clipPath>
</defs>
</svg>
