<?xml version="1.0" encoding="UTF-8"?>
<svg id="Layer_1" xmlns="http://www.w3.org/2000/svg" version="1.1" xmlns:xlink="http://www.w3.org/1999/xlink" viewBox="0 0 1920 970">
  <!-- Generator: Adobe Illustrator 29.5.0, SVG Export Plug-In . SVG Version: 2.1.0 Build 137)  -->
  <defs>
    <style>
      .st0 {
        fill: #fff;
      }

      .st1 {
        fill: none;
      }

      .st2 {
        fill: #067734;
      }

      .st3 {
        fill: #006d2c;
      }

      .st4 {
        clip-path: url(#clippath);
      }

      .st5 {
        opacity: .5;
      }
    </style>
    <clipPath id="clippath">
      <rect class="st1" x="-19.19" y="-3.19" width="1958.38" height="976.39"/>
    </clipPath>
  </defs>
  <g class="st4">
    <rect class="st3" x="-210.93" y="-110.03" width="2341.86" height="595.03"/>
    <g>
      <path class="st2" d="M435.01,107.81h27.84c13.86,0,27.4,5.65,37.14,15.51l63.92,64.16h38.34l-82.93-83.26c-14.8-14.99-35.38-23.58-56.46-23.58h-98.03v27.17h15.5c10.55,0,20.67,4.22,28.08,11.73l67.56,67.95h38.29l-79.25-79.68Z"/>
      <path class="st2" d="M519.31-26.77l82.79-83.26h-38.31l-63.81,64.17c-9.74,9.86-23.27,15.51-37.14,15.51h-27.84l79.33-79.68h-38.3l-67.63,67.95c-7.42,7.51-17.53,11.73-28.08,11.73h-15.5V-3.19h98.03c21.07,0,41.65-8.59,56.46-23.58Z"/>
      <path class="st2" d="M532.39,67.59l119.89,119.89h14.05v-24.36l-114.73-114.74c-3.63-3.63-7.55-6.85-11.69-9.66,4.15-2.81,8.07-6.04,11.69-9.66l114.74-114.74v-24.36h-14.05l-119.89,119.89c-9.86,9.85-22.97,15.29-36.91,15.29h-130.67v27.17h130.67c13.94,0,27.05,5.43,36.91,15.29Z"/>
      <path class="st2" d="M813.37,104.22l-82.79,83.26h38.31l63.81-64.17c9.74-9.86,23.27-15.51,37.14-15.51h27.84l-79.33,79.68h38.3l67.63-67.95c7.42-7.51,17.53-11.73,28.08-11.73h15.5v-27.17h-98.03c-21.07,0-41.65,8.59-56.46,23.58Z"/>
      <path class="st2" d="M800.28,9.85l-119.89-119.89h-14.05v24.36l114.73,114.74c3.63,3.63,7.55,6.85,11.69,9.66-4.15,2.81-8.07,6.04-11.69,9.66l-114.74,114.74v24.36h14.05l119.89-119.89c9.86-9.85,22.97-15.29,36.91-15.29h130.67v-27.17h-130.67c-13.94,0-27.05-5.43-36.91-15.29Z"/>
      <path class="st2" d="M519.31,270.74l82.79-83.26h-38.31s-63.81,64.17-63.81,64.17c-9.74,9.86-23.27,15.51-37.14,15.51h-27.84s79.33-79.68,79.33-79.68h-38.3s-67.63,67.95-67.63,67.95c-7.42,7.51-17.53,11.73-28.08,11.73h-15.5s0,27.17,0,27.17h98.03c21.07,0,41.65-8.59,56.46-23.58Z"/>
      <path class="st2" d="M532.39,365.11l119.89,119.89h14.05s0-24.36,0-24.36l-114.73-114.74c-3.63-3.63-7.55-6.85-11.69-9.66,4.15-2.81,8.07-6.04,11.69-9.66l114.74-114.74v-24.36s-14.05,0-14.05,0l-119.89,119.89c-9.86,9.85-22.97,15.29-36.91,15.29h-130.67s0,27.17,0,27.17h130.67c13.94,0,27.05,5.43,36.91,15.29Z"/>
      <path class="st2" d="M897.67,267.16h-27.84c-13.86,0-27.4-5.65-37.14-15.51l-63.92-64.16h-38.34s82.93,83.26,82.93,83.26c14.8,14.99,35.38,23.58,56.46,23.58h98.03s0-27.17,0-27.17h-15.5c-10.55,0-20.67-4.22-28.08-11.73l-67.56-67.95h-38.29s79.25,79.68,79.25,79.68Z"/>
      <path class="st2" d="M800.28,307.37l-119.89-119.89h-14.05s0,24.36,0,24.36l114.73,114.74c3.63,3.63,7.55,6.85,11.69,9.66-4.15,2.81-8.07,6.04-11.69,9.66l-114.74,114.74v24.36s14.05,0,14.05,0l119.89-119.89c9.86-9.85,22.97-15.29,36.91-15.29h130.67s0-27.17,0-27.17h-130.67c-13.94,0-27.05-5.43-36.91-15.29Z"/>
      <path class="st2" d="M1022.33,107.81h27.84c13.86,0,27.4,5.65,37.14,15.51l63.92,64.16h38.34l-82.93-83.26c-14.8-14.99-35.38-23.58-56.46-23.58h-98.03v27.17h15.5c10.55,0,20.67,4.22,28.08,11.73l67.56,67.95h38.29l-79.25-79.68Z"/>
      <path class="st2" d="M1119.72,67.59l119.89,119.89h14.05v-24.36l-114.73-114.74c-3.63-3.63-7.55-6.85-11.69-9.66,4.15-2.81,8.07-6.04,11.69-9.66l114.74-114.74v-24.36h-14.05l-119.89,119.89c-9.86,9.85-22.97,15.29-36.91,15.29h-130.67v27.17h130.67c13.94,0,27.05,5.43,36.91,15.29Z"/>
      <path class="st2" d="M1484.99-30.36h-27.84c-13.86,0-27.4-5.65-37.14-15.51l-63.92-64.16h-38.34l82.93,83.26c14.8,14.99,35.38,23.58,56.46,23.58h98.03v-27.17h-15.5c-10.55,0-20.67-4.22-28.08-11.73l-67.56-67.95h-38.29l79.25,79.68Z"/>
      <path class="st2" d="M1387.61,9.85l-119.89-119.89h-14.05v24.36l114.73,114.74c3.63,3.63,7.55,6.85,11.69,9.66-4.15,2.81-8.07,6.04-11.69,9.66l-114.74,114.74v24.36h14.05l119.89-119.89c9.86-9.85,22.97-15.29,36.91-15.29h130.67v-27.17h-130.67c-13.94,0-27.05-5.43-36.91-15.29Z"/>
      <path class="st2" d="M1106.63,270.74l82.79-83.26h-38.31s-63.81,64.17-63.81,64.17c-9.74,9.86-23.27,15.51-37.14,15.51h-27.84s79.33-79.68,79.33-79.68h-38.3s-67.63,67.95-67.63,67.95c-7.42,7.51-17.53,11.73-28.08,11.73h-15.5s0,27.17,0,27.17h98.03c21.07,0,41.65-8.59,56.46-23.58Z"/>
      <path class="st2" d="M1119.72,365.11l119.89,119.89h14.05s0-24.36,0-24.36l-114.73-114.74c-3.63-3.63-7.55-6.85-11.69-9.66,4.15-2.81,8.07-6.04,11.69-9.66l114.74-114.74v-24.36s-14.05,0-14.05,0l-119.89,119.89c-9.86,9.85-22.97,15.29-36.91,15.29h-130.67s0,27.17,0,27.17h130.67c13.94,0,27.05,5.43,36.91,15.29Z"/>
      <path class="st2" d="M1387.61,307.37l-119.89-119.89h-14.05s0,24.36,0,24.36l114.73,114.74c3.63,3.63,7.55,6.85,11.69,9.66-4.15,2.81-8.07,6.04-11.69,9.66l-114.74,114.74v24.36s14.05,0,14.05,0l119.89-119.89c9.86-9.85,22.97-15.29,36.91-15.29h130.67s0-27.17,0-27.17h-130.67c-13.94,0-27.05-5.43-36.91-15.29Z"/>
      <path class="st2" d="M1709.67-26.77l82.79-83.26h-38.31l-63.81,64.17c-9.74,9.86-23.27,15.51-37.14,15.51h-27.84l79.33-79.68h-38.3l-67.63,67.95c-7.42,7.51-17.53,11.73-28.08,11.73h-15.5V-3.19h98.03c21.07,0,41.65-8.59,56.46-23.58Z"/>
      <path class="st2" d="M1722.76,67.59l119.89,119.89h14.05v-24.36l-114.73-114.74c-3.63-3.63-7.55-6.85-11.69-9.66,4.15-2.81,8.07-6.04,11.69-9.66l114.74-114.74v-24.36h-14.05l-119.89,119.89c-9.86,9.85-22.97,15.29-36.91,15.29h-130.67v27.17h130.67c13.94,0,27.05,5.43,36.91,15.29Z"/>
      <path class="st2" d="M2003.74,104.22l-82.79,83.26h38.31l63.81-64.17c9.74-9.86,23.27-15.51,37.14-15.51h27.84l-79.33,79.68h38.3l67.63-67.95c7.42-7.51,17.53-11.73,28.08-11.73h15.5v-27.17h-98.03c-21.07,0-41.65,8.59-56.46,23.58Z"/>
      <path class="st2" d="M1990.65,9.85l-119.89-119.89h-14.05v24.36l114.73,114.74c3.63,3.63,7.55,6.85,11.69,9.66-4.15,2.81-8.07,6.04-11.69,9.66l-114.74,114.74v24.36h14.05l119.89-119.89c9.86-9.85,22.97-15.29,36.91-15.29h130.67v-27.17h-130.67c-13.94,0-27.05-5.43-36.91-15.29Z"/>
      <path class="st2" d="M1722.76,365.11l119.89,119.89h14.05s0-24.36,0-24.36l-114.73-114.74c-3.63-3.63-7.55-6.85-11.69-9.66,4.15-2.81,8.07-6.04,11.69-9.66l114.74-114.74v-24.36s-14.05,0-14.05,0l-119.89,119.89c-9.86,9.85-22.97,15.29-36.91,15.29h-130.67s0,27.17,0,27.17h130.67c13.94,0,27.05,5.43,36.91,15.29Z"/>
      <path class="st2" d="M2088.04,267.16h-27.84c-13.86,0-27.4-5.65-37.14-15.51l-63.92-64.16h-38.34s82.93,83.26,82.93,83.26c14.8,14.99,35.38,23.58,56.46,23.58h98.03s0-27.17,0-27.17h-15.5c-10.55,0-20.67-4.22-28.08-11.73l-67.56-67.95h-38.29s79.25,79.68,79.25,79.68Z"/>
      <path class="st2" d="M1990.65,307.37l-119.89-119.89h-14.05s0,24.36,0,24.36l114.73,114.74c3.63,3.63,7.55,6.85,11.69,9.66-4.15,2.81-8.07,6.04-11.69,9.66l-114.74,114.74v24.36s14.05,0,14.05,0l119.89-119.89c9.86-9.85,22.97-15.29,36.91-15.29h130.67s0-27.17,0-27.17h-130.67c-13.94,0-27.05-5.43-36.91-15.29Z"/>
      <path class="st2" d="M2212.7,107.81h27.84c13.86,0,27.4,5.65,37.14,15.51l63.92,64.16h38.34l-82.93-83.26c-14.8-14.99-35.38-23.58-56.46-23.58h-98.03v27.17h15.5c10.55,0,20.67,4.22,28.08,11.73l67.56,67.95h38.29l-79.25-79.68Z"/>
      <path class="st2" d="M2310.08,67.59l119.89,119.89h14.05v-24.36l-114.73-114.74c-3.63-3.63-7.55-6.85-11.69-9.66,4.15-2.81,8.07-6.04,11.69-9.66l114.74-114.74v-24.36h-14.05l-119.89,119.89c-9.86,9.85-22.97,15.29-36.91,15.29h-130.67v27.17h130.67c13.94,0,27.05,5.43,36.91,15.29Z"/>
      <path class="st2" d="M2675.36-30.36h-27.84c-13.86,0-27.4-5.65-37.14-15.51l-63.92-64.16h-38.34l82.93,83.26c14.8,14.99,35.38,23.58,56.46,23.58h98.03v-27.17h-15.5c-10.55,0-20.67-4.22-28.08-11.73l-67.56-67.95h-38.29l79.25,79.68Z"/>
      <path class="st2" d="M2591.06,104.22l-82.79,83.26h38.31l63.81-64.17c9.74-9.86,23.27-15.51,37.14-15.51h27.84l-79.33,79.68h38.3l67.63-67.95c7.42-7.51,17.53-11.73,28.08-11.73h15.5v-27.17h-98.03c-21.07,0-41.65,8.59-56.46,23.58Z"/>
      <path class="st2" d="M2577.97,9.85l-119.89-119.89h-14.05v24.36l114.73,114.74c3.63,3.63,7.55,6.85,11.69,9.66-4.15,2.81-8.07,6.04-11.69,9.66l-114.74,114.74v24.36h14.05l119.89-119.89c9.86-9.85,22.97-15.29,36.91-15.29h130.67v-27.17h-130.67c-13.94,0-27.05-5.43-36.91-15.29Z"/>
      <g>
        <path class="st2" d="M2088.04-30.36h-27.84c-13.86,0-27.4-5.65-37.14-15.51l-63.92-64.16h-38.34l82.93,83.26c14.8,14.99,35.38,23.58,56.46,23.58h98.03v-27.17h-15.5c-10.55,0-20.67-4.22-28.08-11.73l-67.56-67.95h-38.29l79.25,79.68Z"/>
        <path class="st2" d="M2003.74,401.74l-82.79,83.26h38.31s63.81-64.17,63.81-64.17c9.74-9.86,23.27-15.51,37.14-15.51h27.84s-79.33,79.68-79.33,79.68h38.3s67.63-67.95,67.63-67.95c7.42-7.51,17.53-11.73,28.08-11.73h15.5s0-27.17,0-27.17h-98.03c-21.07,0-41.65,8.59-56.46,23.58Z"/>
        <path class="st2" d="M2297-26.77l82.79-83.26h-38.31l-63.81,64.17c-9.74,9.86-23.27,15.51-37.14,15.51h-27.84l79.33-79.68h-38.3l-67.63,67.95c-7.42,7.51-17.53,11.73-28.08,11.73h-15.5V-3.19h98.03c21.07,0,41.65-8.59,56.46-23.58Z"/>
        <path class="st2" d="M2212.7,405.32h27.84c13.86,0,27.4,5.65,37.14,15.51l63.92,64.16h38.34s-82.93-83.26-82.93-83.26c-14.8-14.99-35.38-23.58-56.46-23.58h-98.03s0,27.17,0,27.17h15.5c10.55,0,20.67,4.22,28.08,11.73l67.56,67.95h38.29s-79.25-79.68-79.25-79.68Z"/>
      </g>
      <path class="st2" d="M2297,270.74l82.79-83.26h-38.31s-63.81,64.17-63.81,64.17c-9.74,9.86-23.27,15.51-37.14,15.51h-27.84s79.33-79.68,79.33-79.68h-38.3s-67.63,67.95-67.63,67.95c-7.42,7.51-17.53,11.73-28.08,11.73h-15.5s0,27.17,0,27.17h98.03c21.07,0,41.65-8.59,56.46-23.58Z"/>
      <path class="st2" d="M2310.08,365.11l119.89,119.89h14.05s0-24.36,0-24.36l-114.73-114.74c-3.63-3.63-7.55-6.85-11.69-9.66,4.15-2.81,8.07-6.04,11.69-9.66l114.74-114.74v-24.36s-14.05,0-14.05,0l-119.89,119.89c-9.86,9.85-22.97,15.29-36.91,15.29h-130.67s0,27.17,0,27.17h130.67c13.94,0,27.05,5.43,36.91,15.29Z"/>
      <path class="st2" d="M2675.36,267.16h-27.84c-13.86,0-27.4-5.65-37.14-15.51l-63.92-64.16h-38.34s82.93,83.26,82.93,83.26c14.8,14.99,35.38,23.58,56.46,23.58h98.03s0-27.17,0-27.17h-15.5c-10.55,0-20.67-4.22-28.08-11.73l-67.56-67.95h-38.29s79.25,79.68,79.25,79.68Z"/>
      <path class="st2" d="M2591.06,401.74l-82.79,83.26h38.31s63.81-64.17,63.81-64.17c9.74-9.86,23.27-15.51,37.14-15.51h27.84s-79.33,79.68-79.33,79.68h38.3s67.63-67.95,67.63-67.95c7.42-7.51,17.53-11.73,28.08-11.73h15.5s0-27.17,0-27.17h-98.03c-21.07,0-41.65,8.59-56.46,23.58Z"/>
      <path class="st2" d="M2577.97,307.37l-119.89-119.89h-14.05s0,24.36,0,24.36l114.73,114.74c3.63,3.63,7.55,6.85,11.69,9.66-4.15,2.81-8.07,6.04-11.69,9.66l-114.74,114.74v24.36s14.05,0,14.05,0l119.89-119.89c9.86-9.85,22.97-15.29,36.91-15.29h130.67s0-27.17,0-27.17h-130.67c-13.94,0-27.05-5.43-36.91-15.29Z"/>
      <path class="st2" d="M-755.36,107.81h27.84c13.86,0,27.4,5.65,37.14,15.51l63.92,64.16h38.34l-82.93-83.26c-14.8-14.99-35.38-23.58-56.46-23.58h-98.03v27.17h15.5c10.55,0,20.67,4.22,28.08,11.73l67.56,67.95h38.29l-79.25-79.68Z"/>
      <path class="st2" d="M-671.06-26.77l82.79-83.26h-38.31l-63.81,64.17c-9.74,9.86-23.27,15.51-37.14,15.51h-27.84l79.33-79.68h-38.3l-67.63,67.95c-7.42,7.51-17.53,11.73-28.08,11.73h-15.5V-3.19h98.03c21.07,0,41.65-8.59,56.46-23.58Z"/>
      <path class="st2" d="M-657.97,67.59l119.89,119.89h14.05v-24.36l-114.73-114.74c-3.63-3.63-7.55-6.85-11.69-9.66,4.15-2.81,8.07-6.04,11.69-9.66l114.74-114.74v-24.36h-14.05l-119.89,119.89c-9.86,9.85-22.97,15.29-36.91,15.29h-130.67v27.17h130.67c13.94,0,27.05,5.43,36.91,15.29Z"/>
      <path class="st2" d="M-377,104.22l-82.79,83.26h38.31l63.81-64.17c9.74-9.86,23.27-15.51,37.14-15.51h27.84l-79.33,79.68h38.3l67.63-67.95c7.42-7.51,17.53-11.73,28.08-11.73h15.5v-27.17h-98.03c-21.07,0-41.65,8.59-56.46,23.58Z"/>
      <path class="st2" d="M-390.08,9.85l-119.89-119.89h-14.05v24.36l114.73,114.74c3.63,3.63,7.55,6.85,11.69,9.66-4.15,2.81-8.07,6.04-11.69,9.66l-114.74,114.74v24.36h14.05l119.89-119.89c9.86-9.85,22.97-15.29,36.91-15.29h130.67v-27.17h-130.67c-13.94,0-27.05-5.43-36.91-15.29Z"/>
      <path class="st2" d="M-755.36,405.32h27.84c13.86,0,27.4,5.65,37.14,15.51l63.92,64.16h38.34s-82.93-83.26-82.93-83.26c-14.8-14.99-35.38-23.58-56.46-23.58h-98.03s0,27.17,0,27.17h15.5c10.55,0,20.67,4.22,28.08,11.73l67.56,67.95h38.29s-79.25-79.68-79.25-79.68Z"/>
      <path class="st2" d="M-671.06,270.74l82.79-83.26h-38.31s-63.81,64.17-63.81,64.17c-9.74,9.86-23.27,15.51-37.14,15.51h-27.84s79.33-79.68,79.33-79.68h-38.3s-67.63,67.95-67.63,67.95c-7.42,7.51-17.53,11.73-28.08,11.73h-15.5s0,27.17,0,27.17h98.03c21.07,0,41.65-8.59,56.46-23.58Z"/>
      <path class="st2" d="M-657.97,365.11l119.89,119.89h14.05s0-24.36,0-24.36l-114.73-114.74c-3.63-3.63-7.55-6.85-11.69-9.66,4.15-2.81,8.07-6.04,11.69-9.66l114.74-114.74v-24.36s-14.05,0-14.05,0l-119.89,119.89c-9.86,9.85-22.97,15.29-36.91,15.29h-130.67s0,27.17,0,27.17h130.67c13.94,0,27.05,5.43,36.91,15.29Z"/>
      <path class="st2" d="M-292.7,267.16h-27.84c-13.86,0-27.4-5.65-37.14-15.51l-63.92-64.16h-38.34s82.93,83.26,82.93,83.26c14.8,14.99,35.38,23.58,56.46,23.58h98.03s0-27.17,0-27.17h-15.5c-10.55,0-20.67-4.22-28.08-11.73l-67.56-67.95h-38.29s79.25,79.68,79.25,79.68Z"/>
      <path class="st2" d="M-390.08,307.37l-119.89-119.89h-14.05s0,24.36,0,24.36l114.73,114.74c3.63,3.63,7.55,6.85,11.69,9.66-4.15,2.81-8.07,6.04-11.69,9.66l-114.74,114.74v24.36s14.05,0,14.05,0l119.89-119.89c9.86-9.85,22.97-15.29,36.91-15.29h130.67s0-27.17,0-27.17h-130.67c-13.94,0-27.05-5.43-36.91-15.29Z"/>
      <path class="st2" d="M-168.04,107.81h27.84c13.86,0,27.4,5.65,37.14,15.51l63.92,64.16H-.8l-82.93-83.26c-14.8-14.99-35.38-23.58-56.46-23.58h-98.03v27.17h15.5c10.55,0,20.67,4.22,28.08,11.73l67.56,67.95h38.29l-79.25-79.68Z"/>
      <path class="st2" d="M-70.65,67.59l119.89,119.89h14.05v-24.36L-51.44,48.39c-3.63-3.63-7.55-6.85-11.69-9.66,4.15-2.81,8.07-6.04,11.69-9.66L63.29-85.68v-24.36h-14.05L-70.65,9.85c-9.86,9.85-22.97,15.29-36.91,15.29h-130.67v27.17H-107.56c13.94,0,27.05,5.43,36.91,15.29Z"/>
      <path class="st2" d="M294.63-30.36h-27.84c-13.86,0-27.4-5.65-37.14-15.51l-63.92-64.16h-38.34L210.33-26.77c14.8,14.99,35.38,23.58,56.46,23.58h98.03v-27.17h-15.5c-10.55,0-20.67-4.22-28.08-11.73l-67.56-67.95h-38.29l79.25,79.68Z"/>
      <path class="st2" d="M210.33,104.22l-82.79,83.26h38.31l63.81-64.17c9.74-9.86,23.27-15.51,37.14-15.51h27.84l-79.33,79.68h38.3l67.63-67.95c7.42-7.51,17.53-11.73,28.08-11.73h15.5v-27.17h-98.03c-21.07,0-41.65,8.59-56.46,23.58Z"/>
      <path class="st2" d="M197.24,9.85l-119.89-119.89h-14.05v24.36L178.03,29.06c3.63,3.63,7.55,6.85,11.69,9.66-4.15,2.81-8.07,6.04-11.69,9.66l-114.74,114.74v24.36h14.05l119.89-119.89c9.86-9.85,22.97-15.29,36.91-15.29h130.67v-27.17h-130.67c-13.94,0-27.05-5.43-36.91-15.29Z"/>
      <g>
        <path class="st2" d="M-292.7-30.36h-27.84c-13.86,0-27.4-5.65-37.14-15.51l-63.92-64.16h-38.34l82.93,83.26c14.8,14.99,35.38,23.58,56.46,23.58h98.03v-27.17h-15.5c-10.55,0-20.67-4.22-28.08-11.73l-67.56-67.95h-38.29l79.25,79.68Z"/>
        <path class="st2" d="M-377,401.74l-82.79,83.26h38.31s63.81-64.17,63.81-64.17c9.74-9.86,23.27-15.51,37.14-15.51h27.84s-79.33,79.68-79.33,79.68h38.3s67.63-67.95,67.63-67.95c7.42-7.51,17.53-11.73,28.08-11.73h15.5s0-27.17,0-27.17h-98.03c-21.07,0-41.65,8.59-56.46,23.58Z"/>
        <path class="st2" d="M-83.74-26.77L-.95-110.03h-38.31l-63.81,64.17c-9.74,9.86-23.27,15.51-37.14,15.51h-27.84l79.33-79.68h-38.3l-67.63,67.95c-7.42,7.51-17.53,11.73-28.08,11.73h-15.5V-3.19h98.03c21.07,0,41.65-8.59,56.46-23.58Z"/>
        <path class="st2" d="M-168.04,405.32h27.84c13.86,0,27.4,5.65,37.14,15.51l63.92,64.16H-.8s-82.93-83.26-82.93-83.26c-14.8-14.99-35.38-23.58-56.46-23.58h-98.03s0,27.17,0,27.17h15.5c10.55,0,20.67,4.22,28.08,11.73l67.56,67.95h38.29s-79.25-79.68-79.25-79.68Z"/>
      </g>
      <path class="st2" d="M-83.74,270.74L-.95,187.48h-38.31s-63.81,64.17-63.81,64.17c-9.74,9.86-23.27,15.51-37.14,15.51h-27.84s79.33-79.68,79.33-79.68h-38.3s-67.63,67.95-67.63,67.95c-7.42,7.51-17.53,11.73-28.08,11.73h-15.5s0,27.17,0,27.17h98.03c21.07,0,41.65-8.59,56.46-23.58Z"/>
      <path class="st2" d="M-70.65,365.11l119.89,119.89h14.05s0-24.36,0-24.36l-114.73-114.74c-3.63-3.63-7.55-6.85-11.69-9.66,4.15-2.81,8.07-6.04,11.69-9.66l114.74-114.74v-24.36s-14.05,0-14.05,0l-119.89,119.89c-9.86,9.85-22.97,15.29-36.91,15.29h-130.67s0,27.17,0,27.17H-107.56c13.94,0,27.05,5.43,36.91,15.29Z"/>
      <path class="st2" d="M294.63,267.16h-27.84c-13.86,0-27.4-5.65-37.14-15.51l-63.92-64.16h-38.34s82.93,83.26,82.93,83.26c14.8,14.99,35.38,23.58,56.46,23.58h98.03s0-27.17,0-27.17h-15.5c-10.55,0-20.67-4.22-28.08-11.73l-67.56-67.95h-38.29s79.25,79.68,79.25,79.68Z"/>
      <path class="st2" d="M1625.37,107.81h27.84c13.86,0,27.4,5.65,37.14,15.51l63.92,64.16h38.34l-82.93-83.26c-14.8-14.99-35.38-23.58-56.46-23.58h-98.03v27.17h15.5c10.55,0,20.67,4.22,28.08,11.73l67.56,67.95h38.29l-79.25-79.68Z"/>
      <path class="st2" d="M1709.67,270.74l82.79-83.26h-38.31s-63.81,64.17-63.81,64.17c-9.74,9.86-23.27,15.51-37.14,15.51h-27.84s79.33-79.68,79.33-79.68h-38.3s-67.63,67.95-67.63,67.95c-7.42,7.51-17.53,11.73-28.08,11.73h-15.5s0,27.17,0,27.17h98.03c21.07,0,41.65-8.59,56.46-23.58Z"/>
      <path class="st2" d="M1400.69,104.22l-82.79,83.26h38.31l63.81-64.17c9.74-9.86,23.27-15.51,37.14-15.51h27.84l-79.33,79.68h38.3l67.63-67.95c7.42-7.51,17.53-11.73,28.08-11.73h15.5v-27.17h-98.03c-21.07,0-41.65,8.59-56.46,23.58Z"/>
      <path class="st2" d="M1484.99,267.16h-27.84c-13.86,0-27.4-5.65-37.14-15.51l-63.92-64.16h-38.34s82.93,83.26,82.93,83.26c14.8,14.99,35.38,23.58,56.46,23.58h98.03s0-27.17,0-27.17h-15.5c-10.55,0-20.67-4.22-28.08-11.73l-67.56-67.95h-38.29s79.25,79.68,79.25,79.68Z"/>
      <path class="st2" d="M197.24,307.37l-119.89-119.89h-14.05s0,24.36,0,24.36l114.73,114.74c3.63,3.63,7.55,6.85,11.69,9.66-4.15,2.81-8.07,6.04-11.69,9.66l-114.74,114.74v24.36s14.05,0,14.05,0l119.89-119.89c9.86-9.85,22.97-15.29,36.91-15.29h130.67s0-27.17,0-27.17h-130.67c-13.94,0-27.05-5.43-36.91-15.29Z"/>
    </g>
    <rect class="st3" x="-210.93" y="485" width="2341.86" height="595.03"/>
    <g>
      <path class="st2" d="M532.39,662.63l119.89,119.89h14.05v-24.36l-114.73-114.74c-3.63-3.63-7.55-6.85-11.69-9.66,4.15-2.81,8.07-6.04,11.69-9.66l114.74-114.74v-24.36h-14.05l-119.89,119.89c-9.86,9.85-22.97,15.29-36.91,15.29h-130.67v27.17h130.67c13.94,0,27.05,5.43,36.91,15.29Z"/>
      <path class="st2" d="M813.37,699.26l-82.79,83.26h38.31l63.81-64.17c9.74-9.86,23.27-15.51,37.14-15.51h27.84l-79.33,79.68h38.3l67.63-67.95c7.42-7.51,17.53-11.73,28.08-11.73h15.5v-27.17h-98.03c-21.07,0-41.65,8.59-56.46,23.58Z"/>
      <path class="st2" d="M800.28,604.89l-119.89-119.89h-14.05v24.36l114.73,114.74c3.63,3.63,7.55,6.85,11.69,9.66-4.15,2.81-8.07,6.04-11.69,9.66l-114.74,114.74v24.36h14.05l119.89-119.89c9.86-9.85,22.97-15.29,36.91-15.29h130.67v-27.17h-130.67c-13.94,0-27.05-5.43-36.91-15.29Z"/>
      <path class="st2" d="M435.01,1000.36h27.84c13.86,0,27.4,5.65,37.14,15.51l63.92,64.16h38.34s-82.93-83.26-82.93-83.26c-14.8-14.99-35.38-23.58-56.46-23.58h-98.03s0,27.17,0,27.17h15.5c10.55,0,20.67,4.22,28.08,11.73l67.56,67.95h38.29s-79.25-79.68-79.25-79.68Z"/>
      <path class="st2" d="M532.39,960.15l119.89,119.89h14.05s0-24.36,0-24.36l-114.73-114.74c-3.63-3.63-7.55-6.85-11.69-9.66,4.15-2.81,8.07-6.04,11.69-9.66l114.74-114.74v-24.36s-14.05,0-14.05,0l-119.89,119.89c-9.86,9.85-22.97,15.29-36.91,15.29h-130.67s0,27.17,0,27.17h130.67c13.94,0,27.05,5.43,36.91,15.29Z"/>
      <path class="st2" d="M897.67,862.19h-27.84c-13.86,0-27.4-5.65-37.14-15.51l-63.92-64.16h-38.34s82.93,83.26,82.93,83.26c14.8,14.99,35.38,23.58,56.46,23.58h98.03s0-27.17,0-27.17h-15.5c-10.55,0-20.67-4.22-28.08-11.73l-67.56-67.95h-38.29s79.25,79.68,79.25,79.68Z"/>
      <path class="st2" d="M800.28,902.41l-119.89-119.89h-14.05s0,24.36,0,24.36l114.73,114.74c3.63,3.63,7.55,6.85,11.69,9.66-4.15,2.81-8.07,6.04-11.69,9.66l-114.74,114.74v24.36s14.05,0,14.05,0l119.89-119.89c9.86-9.85,22.97-15.29,36.91-15.29h130.67s0-27.17,0-27.17h-130.67c-13.94,0-27.05-5.43-36.91-15.29Z"/>
      <path class="st2" d="M1022.33,702.84h27.84c13.86,0,27.4,5.65,37.14,15.51l63.92,64.16h38.34l-82.93-83.26c-14.8-14.99-35.38-23.58-56.46-23.58h-98.03v27.17h15.5c10.55,0,20.67,4.22,28.08,11.73l67.56,67.95h38.29l-79.25-79.68Z"/>
      <path class="st2" d="M1119.72,662.63l119.89,119.89h14.05v-24.36l-114.73-114.74c-3.63-3.63-7.55-6.85-11.69-9.66,4.15-2.81,8.07-6.04,11.69-9.66l114.74-114.74v-24.36h-14.05l-119.89,119.89c-9.86,9.85-22.97,15.29-36.91,15.29h-130.67v27.17h130.67c13.94,0,27.05,5.43,36.91,15.29Z"/>
      <path class="st2" d="M1387.61,604.89l-119.89-119.89h-14.05v24.36l114.73,114.74c3.63,3.63,7.55,6.85,11.69,9.66-4.15,2.81-8.07,6.04-11.69,9.66l-114.74,114.74v24.36h14.05l119.89-119.89c9.86-9.85,22.97-15.29,36.91-15.29h130.67v-27.17h-130.67c-13.94,0-27.05-5.43-36.91-15.29Z"/>
      <path class="st2" d="M1106.63,865.78l82.79-83.26h-38.31s-63.81,64.17-63.81,64.17c-9.74,9.86-23.27,15.51-37.14,15.51h-27.84s79.33-79.68,79.33-79.68h-38.3s-67.63,67.95-67.63,67.95c-7.42,7.51-17.53,11.73-28.08,11.73h-15.5s0,27.17,0,27.17h98.03c21.07,0,41.65-8.59,56.46-23.58Z"/>
      <path class="st2" d="M1119.72,960.15l119.89,119.89h14.05s0-24.36,0-24.36l-114.73-114.74c-3.63-3.63-7.55-6.85-11.69-9.66,4.15-2.81,8.07-6.04,11.69-9.66l114.74-114.74v-24.36s-14.05,0-14.05,0l-119.89,119.89c-9.86,9.85-22.97,15.29-36.91,15.29h-130.67s0,27.17,0,27.17h130.67c13.94,0,27.05,5.43,36.91,15.29Z"/>
      <path class="st2" d="M1400.69,996.77l-82.79,83.26h38.31s63.81-64.17,63.81-64.17c9.74-9.86,23.27-15.51,37.14-15.51h27.84s-79.33,79.68-79.33,79.68h38.3s67.63-67.95,67.63-67.95c7.42-7.51,17.53-11.73,28.08-11.73h15.5s0-27.17,0-27.17h-98.03c-21.07,0-41.65,8.59-56.46,23.58Z"/>
      <path class="st2" d="M1387.61,902.41l-119.89-119.89h-14.05s0,24.36,0,24.36l114.73,114.74c3.63,3.63,7.55,6.85,11.69,9.66-4.15,2.81-8.07,6.04-11.69,9.66l-114.74,114.74v24.36s14.05,0,14.05,0l119.89-119.89c9.86-9.85,22.97-15.29,36.91-15.29h130.67s0-27.17,0-27.17h-130.67c-13.94,0-27.05-5.43-36.91-15.29Z"/>
      <path class="st2" d="M1722.76,662.63l119.89,119.89h14.05v-24.36l-114.73-114.74c-3.63-3.63-7.55-6.85-11.69-9.66,4.15-2.81,8.07-6.04,11.69-9.66l114.74-114.74v-24.36h-14.05l-119.89,119.89c-9.86,9.85-22.97,15.29-36.91,15.29h-130.67v27.17h130.67c13.94,0,27.05,5.43,36.91,15.29Z"/>
      <path class="st2" d="M2003.74,699.26l-82.79,83.26h38.31l63.81-64.17c9.74-9.86,23.27-15.51,37.14-15.51h27.84l-79.33,79.68h38.3l67.63-67.95c7.42-7.51,17.53-11.73,28.08-11.73h15.5v-27.17h-98.03c-21.07,0-41.65,8.59-56.46,23.58Z"/>
      <path class="st2" d="M1990.65,604.89l-119.89-119.89h-14.05v24.36l114.73,114.74c3.63,3.63,7.55,6.85,11.69,9.66-4.15,2.81-8.07,6.04-11.69,9.66l-114.74,114.74v24.36h14.05l119.89-119.89c9.86-9.85,22.97-15.29,36.91-15.29h130.67v-27.17h-130.67c-13.94,0-27.05-5.43-36.91-15.29Z"/>
      <path class="st2" d="M1625.37,1000.36h27.84c13.86,0,27.4,5.65,37.14,15.51l63.92,64.16h38.34s-82.93-83.26-82.93-83.26c-14.8-14.99-35.38-23.58-56.46-23.58h-98.03s0,27.17,0,27.17h15.5c10.55,0,20.67,4.22,28.08,11.73l67.56,67.95h38.29s-79.25-79.68-79.25-79.68Z"/>
      <path class="st2" d="M1722.76,960.15l119.89,119.89h14.05s0-24.36,0-24.36l-114.73-114.74c-3.63-3.63-7.55-6.85-11.69-9.66,4.15-2.81,8.07-6.04,11.69-9.66l114.74-114.74v-24.36s-14.05,0-14.05,0l-119.89,119.89c-9.86,9.85-22.97,15.29-36.91,15.29h-130.67s0,27.17,0,27.17h130.67c13.94,0,27.05,5.43,36.91,15.29Z"/>
      <path class="st2" d="M2088.04,862.19h-27.84c-13.86,0-27.4-5.65-37.14-15.51l-63.92-64.16h-38.34s82.93,83.26,82.93,83.26c14.8,14.99,35.38,23.58,56.46,23.58h98.03s0-27.17,0-27.17h-15.5c-10.55,0-20.67-4.22-28.08-11.73l-67.56-67.95h-38.29s79.25,79.68,79.25,79.68Z"/>
      <path class="st2" d="M1990.65,902.41l-119.89-119.89h-14.05s0,24.36,0,24.36l114.73,114.74c3.63,3.63,7.55,6.85,11.69,9.66-4.15,2.81-8.07,6.04-11.69,9.66l-114.74,114.74v24.36s14.05,0,14.05,0l119.89-119.89c9.86-9.85,22.97-15.29,36.91-15.29h130.67s0-27.17,0-27.17h-130.67c-13.94,0-27.05-5.43-36.91-15.29Z"/>
      <path class="st2" d="M2212.7,702.84h27.84c13.86,0,27.4,5.65,37.14,15.51l63.92,64.16h38.34l-82.93-83.26c-14.8-14.99-35.38-23.58-56.46-23.58h-98.03v27.17h15.5c10.55,0,20.67,4.22,28.08,11.73l67.56,67.95h38.29l-79.25-79.68Z"/>
      <path class="st2" d="M2310.08,662.63l119.89,119.89h14.05v-24.36l-114.73-114.74c-3.63-3.63-7.55-6.85-11.69-9.66,4.15-2.81,8.07-6.04,11.69-9.66l114.74-114.74v-24.36h-14.05l-119.89,119.89c-9.86,9.85-22.97,15.29-36.91,15.29h-130.67v27.17h130.67c13.94,0,27.05,5.43,36.91,15.29Z"/>
      <path class="st2" d="M2675.36,564.68h-27.84c-13.86,0-27.4-5.65-37.14-15.51l-63.92-64.16h-38.34l82.93,83.26c14.8,14.99,35.38,23.58,56.46,23.58h98.03v-27.17h-15.5c-10.55,0-20.67-4.22-28.08-11.73l-67.56-67.95h-38.29l79.25,79.68Z"/>
      <path class="st2" d="M2591.06,699.26l-82.79,83.26h38.31l63.81-64.17c9.74-9.86,23.27-15.51,37.14-15.51h27.84l-79.33,79.68h38.3l67.63-67.95c7.42-7.51,17.53-11.73,28.08-11.73h15.5v-27.17h-98.03c-21.07,0-41.65,8.59-56.46,23.58Z"/>
      <path class="st2" d="M2577.97,604.89l-119.89-119.89h-14.05v24.36l114.73,114.74c3.63,3.63,7.55,6.85,11.69,9.66-4.15,2.81-8.07,6.04-11.69,9.66l-114.74,114.74v24.36h14.05l119.89-119.89c9.86-9.85,22.97-15.29,36.91-15.29h130.67v-27.17h-130.67c-13.94,0-27.05-5.43-36.91-15.29Z"/>
      <g class="st5">
        <g>
          <path class="st2" d="M2088.04,564.68h-27.84c-13.86,0-27.4-5.65-37.14-15.51l-63.92-64.16h-38.34l82.93,83.26c14.8,14.99,35.38,23.58,56.46,23.58h98.03v-27.17h-15.5c-10.55,0-20.67-4.22-28.08-11.73l-67.56-67.95h-38.29l79.25,79.68Z"/>
          <path class="st2" d="M2003.74,996.77l-82.79,83.26h38.31s63.81-64.17,63.81-64.17c9.74-9.86,23.27-15.51,37.14-15.51h27.84s-79.33,79.68-79.33,79.68h38.3s67.63-67.95,67.63-67.95c7.42-7.51,17.53-11.73,28.08-11.73h15.5s0-27.17,0-27.17h-98.03c-21.07,0-41.65,8.59-56.46,23.58Z"/>
          <path class="st2" d="M2297,568.26l82.79-83.26h-38.31l-63.81,64.17c-9.74,9.86-23.27,15.51-37.14,15.51h-27.84l79.33-79.68h-38.3l-67.63,67.95c-7.42,7.51-17.53,11.73-28.08,11.73h-15.5v27.17h98.03c21.07,0,41.65-8.59,56.46-23.58Z"/>
          <path class="st2" d="M2212.7,1000.36h27.84c13.86,0,27.4,5.65,37.14,15.51l63.92,64.16h38.34s-82.93-83.26-82.93-83.26c-14.8-14.99-35.38-23.58-56.46-23.58h-98.03s0,27.17,0,27.17h15.5c10.55,0,20.67,4.22,28.08,11.73l67.56,67.95h38.29s-79.25-79.68-79.25-79.68Z"/>
        </g>
      </g>
      <path class="st2" d="M2297,865.78l82.79-83.26h-38.31s-63.81,64.17-63.81,64.17c-9.74,9.86-23.27,15.51-37.14,15.51h-27.84s79.33-79.68,79.33-79.68h-38.3s-67.63,67.95-67.63,67.95c-7.42,7.51-17.53,11.73-28.08,11.73h-15.5s0,27.17,0,27.17h98.03c21.07,0,41.65-8.59,56.46-23.58Z"/>
      <path class="st2" d="M2310.08,960.15l119.89,119.89h14.05s0-24.36,0-24.36l-114.73-114.74c-3.63-3.63-7.55-6.85-11.69-9.66,4.15-2.81,8.07-6.04,11.69-9.66l114.74-114.74v-24.36s-14.05,0-14.05,0l-119.89,119.89c-9.86,9.85-22.97,15.29-36.91,15.29h-130.67s0,27.17,0,27.17h130.67c13.94,0,27.05,5.43,36.91,15.29Z"/>
      <path class="st2" d="M2675.36,862.19h-27.84c-13.86,0-27.4-5.65-37.14-15.51l-63.92-64.16h-38.34s82.93,83.26,82.93,83.26c14.8,14.99,35.38,23.58,56.46,23.58h98.03s0-27.17,0-27.17h-15.5c-10.55,0-20.67-4.22-28.08-11.73l-67.56-67.95h-38.29s79.25,79.68,79.25,79.68Z"/>
      <path class="st2" d="M2591.06,996.77l-82.79,83.26h38.31s63.81-64.17,63.81-64.17c9.74-9.86,23.27-15.51,37.14-15.51h27.84s-79.33,79.68-79.33,79.68h38.3s67.63-67.95,67.63-67.95c7.42-7.51,17.53-11.73,28.08-11.73h15.5s0-27.17,0-27.17h-98.03c-21.07,0-41.65,8.59-56.46,23.58Z"/>
      <path class="st2" d="M2577.97,902.41l-119.89-119.89h-14.05s0,24.36,0,24.36l114.73,114.74c3.63,3.63,7.55,6.85,11.69,9.66-4.15,2.81-8.07,6.04-11.69,9.66l-114.74,114.74v24.36s14.05,0,14.05,0l119.89-119.89c9.86-9.85,22.97-15.29,36.91-15.29h130.67s0-27.17,0-27.17h-130.67c-13.94,0-27.05-5.43-36.91-15.29Z"/>
      <path class="st2" d="M-755.36,702.84h27.84c13.86,0,27.4,5.65,37.14,15.51l63.92,64.16h38.34l-82.93-83.26c-14.8-14.99-35.38-23.58-56.46-23.58h-98.03v27.17h15.5c10.55,0,20.67,4.22,28.08,11.73l67.56,67.95h38.29l-79.25-79.68Z"/>
      <path class="st2" d="M-671.06,568.26l82.79-83.26h-38.31l-63.81,64.17c-9.74,9.86-23.27,15.51-37.14,15.51h-27.84l79.33-79.68h-38.3l-67.63,67.95c-7.42,7.51-17.53,11.73-28.08,11.73h-15.5v27.17h98.03c21.07,0,41.65-8.59,56.46-23.58Z"/>
      <path class="st2" d="M-657.97,662.63l119.89,119.89h14.05v-24.36l-114.73-114.74c-3.63-3.63-7.55-6.85-11.69-9.66,4.15-2.81,8.07-6.04,11.69-9.66l114.74-114.74v-24.36h-14.05l-119.89,119.89c-9.86,9.85-22.97,15.29-36.91,15.29h-130.67v27.17h130.67c13.94,0,27.05,5.43,36.91,15.29Z"/>
      <path class="st2" d="M-377,699.26l-82.79,83.26h38.31l63.81-64.17c9.74-9.86,23.27-15.51,37.14-15.51h27.84l-79.33,79.68h38.3l67.63-67.95c7.42-7.51,17.53-11.73,28.08-11.73h15.5v-27.17h-98.03c-21.07,0-41.65,8.59-56.46,23.58Z"/>
      <path class="st2" d="M-390.08,604.89l-119.89-119.89h-14.05v24.36l114.73,114.74c3.63,3.63,7.55,6.85,11.69,9.66-4.15,2.81-8.07,6.04-11.69,9.66l-114.74,114.74v24.36h14.05l119.89-119.89c9.86-9.85,22.97-15.29,36.91-15.29h130.67v-27.17h-130.67c-13.94,0-27.05-5.43-36.91-15.29Z"/>
      <path class="st2" d="M-755.36,1000.36h27.84c13.86,0,27.4,5.65,37.14,15.51l63.92,64.16h38.34s-82.93-83.26-82.93-83.26c-14.8-14.99-35.38-23.58-56.46-23.58h-98.03s0,27.17,0,27.17h15.5c10.55,0,20.67,4.22,28.08,11.73l67.56,67.95h38.29s-79.25-79.68-79.25-79.68Z"/>
      <path class="st2" d="M-671.06,865.78l82.79-83.26h-38.31s-63.81,64.17-63.81,64.17c-9.74,9.86-23.27,15.51-37.14,15.51h-27.84s79.33-79.68,79.33-79.68h-38.3s-67.63,67.95-67.63,67.95c-7.42,7.51-17.53,11.73-28.08,11.73h-15.5s0,27.17,0,27.17h98.03c21.07,0,41.65-8.59,56.46-23.58Z"/>
      <path class="st2" d="M-657.97,960.15l119.89,119.89h14.05s0-24.36,0-24.36l-114.73-114.74c-3.63-3.63-7.55-6.85-11.69-9.66,4.15-2.81,8.07-6.04,11.69-9.66l114.74-114.74v-24.36s-14.05,0-14.05,0l-119.89,119.89c-9.86,9.85-22.97,15.29-36.91,15.29h-130.67s0,27.17,0,27.17h130.67c13.94,0,27.05,5.43,36.91,15.29Z"/>
      <path class="st2" d="M-292.7,862.19h-27.84c-13.86,0-27.4-5.65-37.14-15.51l-63.92-64.16h-38.34s82.93,83.26,82.93,83.26c14.8,14.99,35.38,23.58,56.46,23.58h98.03s0-27.17,0-27.17h-15.5c-10.55,0-20.67-4.22-28.08-11.73l-67.56-67.95h-38.29s79.25,79.68,79.25,79.68Z"/>
      <path class="st2" d="M-390.08,902.41l-119.89-119.89h-14.05s0,24.36,0,24.36l114.73,114.74c3.63,3.63,7.55,6.85,11.69,9.66-4.15,2.81-8.07,6.04-11.69,9.66l-114.74,114.74v24.36s14.05,0,14.05,0l119.89-119.89c9.86-9.85,22.97-15.29,36.91-15.29h130.67s0-27.17,0-27.17h-130.67c-13.94,0-27.05-5.43-36.91-15.29Z"/>
      <path class="st2" d="M-168.04,702.84h27.84c13.86,0,27.4,5.65,37.14,15.51l63.92,64.16H-.8l-82.93-83.26c-14.8-14.99-35.38-23.58-56.46-23.58h-98.03v27.17h15.5c10.55,0,20.67,4.22,28.08,11.73l67.56,67.95h38.29l-79.25-79.68Z"/>
      <path class="st2" d="M-70.65,662.63l119.89,119.89h14.05v-24.36l-114.73-114.74c-3.63-3.63-7.55-6.85-11.69-9.66,4.15-2.81,8.07-6.04,11.69-9.66l114.74-114.74v-24.36h-14.05l-119.89,119.89c-9.86,9.85-22.97,15.29-36.91,15.29h-130.67v27.17H-107.56c13.94,0,27.05,5.43,36.91,15.29Z"/>
      <path class="st2" d="M197.24,604.89l-119.89-119.89h-14.05v24.36l114.73,114.74c3.63,3.63,7.55,6.85,11.69,9.66-4.15,2.81-8.07,6.04-11.69,9.66l-114.74,114.74v24.36h14.05l119.89-119.89c9.86-9.85,22.97-15.29,36.91-15.29h130.67v-27.17h-130.67c-13.94,0-27.05-5.43-36.91-15.29Z"/>
      <g class="st5">
        <g>
          <path class="st2" d="M-292.7,564.68h-27.84c-13.86,0-27.4-5.65-37.14-15.51l-63.92-64.16h-38.34l82.93,83.26c14.8,14.99,35.38,23.58,56.46,23.58h98.03v-27.17h-15.5c-10.55,0-20.67-4.22-28.08-11.73l-67.56-67.95h-38.29l79.25,79.68Z"/>
          <path class="st2" d="M-377,996.77l-82.79,83.26h38.31s63.81-64.17,63.81-64.17c9.74-9.86,23.27-15.51,37.14-15.51h27.84s-79.33,79.68-79.33,79.68h38.3s67.63-67.95,67.63-67.95c7.42-7.51,17.53-11.73,28.08-11.73h15.5s0-27.17,0-27.17h-98.03c-21.07,0-41.65,8.59-56.46,23.58Z"/>
          <path class="st2" d="M-83.74,568.26L-.95,485h-38.31l-63.81,64.17c-9.74,9.86-23.27,15.51-37.14,15.51h-27.84l79.33-79.68h-38.3l-67.63,67.95c-7.42,7.51-17.53,11.73-28.08,11.73h-15.5v27.17h98.03c21.07,0,41.65-8.59,56.46-23.58Z"/>
          <path class="st2" d="M-168.04,1000.36h27.84c13.86,0,27.4,5.65,37.14,15.51l63.92,64.16H-.8s-82.93-83.26-82.93-83.26c-14.8-14.99-35.38-23.58-56.46-23.58h-98.03s0,27.17,0,27.17h15.5c10.55,0,20.67,4.22,28.08,11.73l67.56,67.95h38.29s-79.25-79.68-79.25-79.68Z"/>
        </g>
      </g>
      <path class="st2" d="M-83.74,865.78L-.95,782.52h-38.31s-63.81,64.17-63.81,64.17c-9.74,9.86-23.27,15.51-37.14,15.51h-27.84s79.33-79.68,79.33-79.68h-38.3s-67.63,67.95-67.63,67.95c-7.42,7.51-17.53,11.73-28.08,11.73h-15.5s0,27.17,0,27.17h98.03c21.07,0,41.65-8.59,56.46-23.58Z"/>
      <path class="st2" d="M-70.65,960.15l119.89,119.89h14.05s0-24.36,0-24.36l-114.73-114.74c-3.63-3.63-7.55-6.85-11.69-9.66,4.15-2.81,8.07-6.04,11.69-9.66l114.74-114.74v-24.36s-14.05,0-14.05,0l-119.89,119.89c-9.86,9.85-22.97,15.29-36.91,15.29h-130.67s0,27.17,0,27.17H-107.56c13.94,0,27.05,5.43,36.91,15.29Z"/>
      <g>
        <path class="st2" d="M435.01,702.84h27.84c13.86,0,27.4,5.65,37.14,15.51l63.92,64.16h38.34l-82.93-83.26c-14.8-14.99-35.38-23.58-56.46-23.58h-98.03v27.17h15.5c10.55,0,20.67,4.22,28.08,11.73l67.56,67.95h38.29l-79.25-79.68Z"/>
        <path class="st2" d="M519.31,865.78l82.79-83.26h-38.31s-63.81,64.17-63.81,64.17c-9.74,9.86-23.27,15.51-37.14,15.51h-27.84s79.33-79.68,79.33-79.68h-38.3s-67.63,67.95-67.63,67.95c-7.42,7.51-17.53,11.73-28.08,11.73h-15.5s0,27.17,0,27.17h98.03c21.07,0,41.65-8.59,56.46-23.58Z"/>
        <path class="st2" d="M210.33,699.26l-82.79,83.26h38.31l63.81-64.17c9.74-9.86,23.27-15.51,37.14-15.51h27.84l-79.33,79.68h38.3l67.63-67.95c7.42-7.51,17.53-11.73,28.08-11.73h15.5v-27.17h-98.03c-21.07,0-41.65,8.59-56.46,23.58Z"/>
        <path class="st2" d="M294.63,862.19h-27.84c-13.86,0-27.4-5.65-37.14-15.51l-63.92-64.16h-38.34s82.93,83.26,82.93,83.26c14.8,14.99,35.38,23.58,56.46,23.58h98.03s0-27.17,0-27.17h-15.5c-10.55,0-20.67-4.22-28.08-11.73l-67.56-67.95h-38.29s79.25,79.68,79.25,79.68Z"/>
      </g>
      <g>
        <path class="st2" d="M1628.65,702.84h27.84c13.86,0,27.4,5.65,37.14,15.51l63.92,64.16h38.34l-82.93-83.26c-14.8-14.99-35.38-23.58-56.46-23.58h-98.03v27.17h15.5c10.55,0,20.67,4.22,28.08,11.73l67.56,67.95h38.29l-79.25-79.68Z"/>
        <path class="st2" d="M1712.94,865.78l82.79-83.26h-38.31s-63.81,64.17-63.81,64.17c-9.74,9.86-23.27,15.51-37.14,15.51h-27.84s79.33-79.68,79.33-79.68h-38.3s-67.63,67.95-67.63,67.95c-7.42,7.51-17.53,11.73-28.08,11.73h-15.5s0,27.17,0,27.17h98.03c21.07,0,41.65-8.59,56.46-23.58Z"/>
        <path class="st2" d="M1403.96,699.26l-82.79,83.26h38.31l63.81-64.17c9.74-9.86,23.27-15.51,37.14-15.51h27.84l-79.33,79.68h38.3l67.63-67.95c7.42-7.51,17.53-11.73,28.08-11.73h15.5v-27.17h-98.03c-21.07,0-41.65,8.59-56.46,23.58Z"/>
        <path class="st2" d="M1488.26,862.19h-27.84c-13.86,0-27.4-5.65-37.14-15.51l-63.92-64.16h-38.34s82.93,83.26,82.93,83.26c14.8,14.99,35.38,23.58,56.46,23.58h98.03s0-27.17,0-27.17h-15.5c-10.55,0-20.67-4.22-28.08-11.73l-67.56-67.95h-38.29s79.25,79.68,79.25,79.68Z"/>
      </g>
      <path class="st2" d="M210.33,996.77l-82.79,83.26h38.31s63.81-64.17,63.81-64.17c9.74-9.86,23.27-15.51,37.14-15.51h27.84s-79.33,79.68-79.33,79.68h38.3s67.63-67.95,67.63-67.95c7.42-7.51,17.53-11.73,28.08-11.73h15.5s0-27.17,0-27.17h-98.03c-21.07,0-41.65,8.59-56.46,23.58Z"/>
      <path class="st2" d="M197.24,902.41l-119.89-119.89h-14.05s0,24.36,0,24.36l114.73,114.74c3.63,3.63,7.55,6.85,11.69,9.66-4.15,2.81-8.07,6.04-11.69,9.66l-114.74,114.74v24.36s14.05,0,14.05,0l119.89-119.89c9.86-9.85,22.97-15.29,36.91-15.29h130.67s0-27.17,0-27.17h-130.67c-13.94,0-27.05-5.43-36.91-15.29Z"/>
    </g>
    <g>
      <path class="st0" d="M761.63,447.95h4.77l6.72,16.06-1.95-.16,12.76-15.9h4.81l-5.49,28.63h-5.69l4.02-20.91,1.39.68-9.94,12.37h-3.42l-5.41-12.8,1.51.08-3.94,20.6h-5.69l5.53-28.63Z"/>
      <path class="st0" d="M789.86,476.58l2.9-14.99c.11-.56.22-1.23.36-2.01.13-.78.24-1.56.34-2.33.09-.77.13-1.43.1-1.99l.2-.4h5.88l-4.21,21.71h-5.57ZM797.58,451.45c-.9,0-1.59-.24-2.07-.74-.48-.49-.72-1.09-.72-1.81,0-1.09.38-1.96,1.13-2.62.76-.66,1.61-.99,2.56-.99.9,0,1.59.25,2.07.74.48.49.72,1.09.72,1.81,0,1.09-.37,1.96-1.11,2.62-.74.66-1.6.99-2.58.99Z"/>
      <path class="st0" d="M802.23,476.58l4.57-23.5c.11-.58.23-1.26.36-2.03.13-.77.25-1.54.34-2.31.09-.77.13-1.43.1-1.99l.2-.4h5.88l-5.88,30.22h-5.57Z"/>
      <path class="st0" d="M814.55,476.58l4.57-23.5c.11-.58.23-1.26.36-2.03.13-.77.25-1.54.34-2.31.09-.77.13-1.43.1-1.99l.2-.4h5.88l-5.88,30.22h-5.57Z"/>
      <path class="st0" d="M826.84,476.58l2.9-14.99c.11-.56.22-1.23.36-2.01.13-.78.24-1.56.34-2.33.09-.77.13-1.43.1-1.99l.2-.4h5.88l-4.21,21.71h-5.57ZM834.55,451.45c-.9,0-1.59-.24-2.07-.74-.48-.49-.72-1.09-.72-1.81,0-1.09.38-1.96,1.13-2.62.76-.66,1.61-.99,2.56-.99.9,0,1.59.25,2.07.74.48.49.72,1.09.72,1.81,0,1.09-.37,1.96-1.11,2.62-.74.66-1.6.99-2.58.99Z"/>
      <path class="st0" d="M866.52,459.44c-.37-.21-.86-.4-1.47-.58-.61-.17-1.41-.26-2.39-.26-1.51,0-2.84.36-3.98,1.07-1.14.72-2.03,1.74-2.66,3.06-.64,1.33-.95,2.89-.95,4.69s.44,3.07,1.31,3.96c.87.89,2.21,1.33,4.02,1.33.88,0,1.68-.09,2.41-.28.73-.19,1.34-.41,1.85-.68l-1.11,1.71c-.03-.64-.01-1.34.04-2.11.05-.77.15-1.55.28-2.35l3.06-15.94c.11-.53.23-1.19.36-1.97.13-.78.24-1.56.34-2.35.09-.78.13-1.45.1-2.01l.24-.4h5.88l-4.53,23.3c-.19.87-.34,1.82-.48,2.82-.13,1.01-.21,1.92-.24,2.74l-.24.32c-1.27.45-2.59.81-3.96,1.09-1.37.28-2.91.42-4.63.42-2.01,0-3.8-.34-5.37-1.01-1.56-.68-2.79-1.72-3.68-3.14s-1.33-3.24-1.33-5.47c0-1.78.28-3.45.85-5.03.57-1.58,1.42-2.97,2.54-4.17,1.13-1.21,2.52-2.15,4.17-2.84,1.66-.69,3.57-1.03,5.75-1.03,1.06,0,2,.1,2.82.3.82.2,1.47.42,1.95.66l-.95,4.14Z"/>
      <path class="st0" d="M885.25,454.35c2.25,0,4.21.34,5.86,1.01,1.66.68,2.94,1.71,3.86,3.1s1.37,3.15,1.37,5.27c0,1.83-.3,3.55-.9,5.15-.6,1.6-1.43,3.01-2.5,4.21-1.07,1.21-2.36,2.15-3.86,2.84-1.5.69-3.16,1.03-4.99,1.03-3.1,0-5.39-.74-6.86-2.23-1.47-1.48-2.21-3.39-2.21-5.73,0-.85.08-1.71.24-2.58.16-.88.34-1.71.56-2.5h16.94v3.62h-12.25c-.05.27-.1.54-.14.81-.04.28-.06.52-.06.74,0,1.14.31,2.05.93,2.72.62.68,1.64,1.01,3.04,1.01,1.01,0,1.91-.22,2.7-.68.8-.45,1.48-1.05,2.05-1.81.57-.76,1-1.62,1.29-2.6.29-.98.44-2.01.44-3.1v-.68c0-1.83-.56-3.16-1.69-4-1.13-.83-2.66-1.25-4.59-1.25-1.22,0-2.37.13-3.46.38-1.09.25-1.94.54-2.54.85h-.4l.91-4.57c.74-.32,1.66-.57,2.74-.76,1.09-.19,2.25-.28,3.5-.28Z"/>
      <path class="st0" d="M898.17,485.81v-.48l7.55-11.85,10.22-18.61h5.65v.48l-17.73,30.46h-5.69ZM903.58,478.57l-4.14-23.22v-.48h5.81l2.43,16.38-4.1,7.32Z"/>
      <path class="st0" d="M931.73,454.35c2.25,0,4.21.34,5.86,1.01,1.66.68,2.94,1.71,3.86,3.1s1.37,3.15,1.37,5.27c0,1.83-.3,3.55-.9,5.15-.6,1.6-1.43,3.01-2.5,4.21-1.07,1.21-2.36,2.15-3.86,2.84-1.5.69-3.16,1.03-4.99,1.03-3.1,0-5.39-.74-6.86-2.23-1.47-1.48-2.21-3.39-2.21-5.73,0-.85.08-1.71.24-2.58.16-.88.34-1.71.56-2.5h16.94v3.62h-12.25c-.05.27-.1.54-.14.81-.04.28-.06.52-.06.74,0,1.14.31,2.05.93,2.72.62.68,1.64,1.01,3.04,1.01,1.01,0,1.91-.22,2.7-.68.8-.45,1.48-1.05,2.05-1.81.57-.76,1-1.62,1.29-2.6.29-.98.44-2.01.44-3.1v-.68c0-1.83-.56-3.16-1.69-4-1.13-.83-2.66-1.25-4.59-1.25-1.22,0-2.37.13-3.46.38-1.09.25-1.94.54-2.54.85h-.4l.91-4.57c.74-.32,1.66-.57,2.74-.76,1.09-.19,2.25-.28,3.5-.28Z"/>
      <path class="st0" d="M948.51,461.63c.16-.88.31-1.78.46-2.7.15-.93.22-1.82.22-2.66l.24-.32c.77-.26,1.63-.5,2.58-.72.95-.21,1.97-.38,3.04-.5,1.07-.12,2.15-.18,3.24-.18.5,0,1.08.01,1.73.04.65.03,1.25.08,1.81.16l-.91,4.53h-.36c-.4-.11-.82-.18-1.27-.22-.45-.04-.91-.06-1.39-.06-.93,0-1.79.06-2.58.18-.8.12-1.48.3-2.07.54l.99-1.63c.03.58.02,1.23-.02,1.95-.04.72-.14,1.46-.3,2.23l-2.74,14.31h-5.57l2.9-14.95Z"/>
      <path class="st0" d="M962.07,476.58l4.57-23.5c.11-.58.22-1.26.36-2.03.13-.77.25-1.54.34-2.31.09-.77.13-1.43.1-1.99l.2-.4h5.88l-5.88,30.22h-5.57Z"/>
      <path class="st0" d="M985.09,454.35c2.25,0,4.21.34,5.87,1.01,1.66.68,2.94,1.71,3.86,3.1.92,1.39,1.37,3.15,1.37,5.27,0,1.83-.3,3.55-.89,5.15-.6,1.6-1.43,3.01-2.5,4.21-1.07,1.21-2.36,2.15-3.86,2.84s-3.16,1.03-4.99,1.03c-3.1,0-5.39-.74-6.86-2.23-1.47-1.48-2.21-3.39-2.21-5.73,0-.85.08-1.71.24-2.58.16-.88.34-1.71.56-2.5h16.94v3.62h-12.25c-.05.27-.1.54-.14.81-.04.28-.06.52-.06.74,0,1.14.31,2.05.93,2.72s1.64,1.01,3.04,1.01c1.01,0,1.91-.22,2.7-.68.79-.45,1.48-1.05,2.05-1.81.57-.76,1-1.62,1.29-2.6.29-.98.44-2.01.44-3.1v-.68c0-1.83-.56-3.16-1.69-4s-2.66-1.25-4.59-1.25c-1.22,0-2.37.13-3.46.38s-1.93.54-2.54.85h-.4l.92-4.57c.74-.32,1.66-.57,2.74-.76,1.09-.19,2.25-.28,3.5-.28Z"/>
      <path class="st0" d="M1001.87,461.63c.16-.88.31-1.78.46-2.7.15-.93.22-1.82.22-2.66l.24-.32c.77-.26,1.63-.5,2.58-.72.95-.21,1.97-.38,3.04-.5,1.07-.12,2.15-.18,3.24-.18.5,0,1.08.01,1.73.04.65.03,1.25.08,1.81.16l-.92,4.53h-.36c-.4-.11-.82-.18-1.27-.22-.45-.04-.92-.06-1.39-.06-.93,0-1.79.06-2.58.18-.79.12-1.48.3-2.07.54l.99-1.63c.03.58.02,1.23-.02,1.95-.04.72-.14,1.46-.3,2.23l-2.74,14.31h-5.57l2.9-14.95Z"/>
      <path class="st0" d="M1015.43,476.58l4.57-23.5c.11-.58.23-1.26.36-2.03.13-.77.25-1.54.34-2.31.09-.77.12-1.43.1-1.99l.2-.4h5.88l-5.88,30.22h-5.57Z"/>
      <path class="st0" d="M1038.45,454.35c2.25,0,4.21.34,5.87,1.01,1.66.68,2.94,1.71,3.86,3.1.92,1.39,1.37,3.15,1.37,5.27,0,1.83-.3,3.55-.89,5.15-.6,1.6-1.43,3.01-2.51,4.21-1.07,1.21-2.36,2.15-3.86,2.84s-3.16,1.03-4.99,1.03c-3.1,0-5.39-.74-6.86-2.23-1.47-1.48-2.21-3.39-2.21-5.73,0-.85.08-1.71.24-2.58.16-.88.34-1.71.56-2.5h16.94v3.62h-12.25c-.05.27-.1.54-.14.81s-.06.52-.06.74c0,1.14.31,2.05.93,2.72.62.68,1.64,1.01,3.04,1.01,1.01,0,1.91-.22,2.7-.68.8-.45,1.48-1.05,2.05-1.81s1-1.62,1.29-2.6c.29-.98.44-2.01.44-3.1v-.68c0-1.83-.56-3.16-1.69-4s-2.66-1.25-4.59-1.25c-1.22,0-2.37.13-3.46.38-1.09.25-1.94.54-2.54.85h-.4l.91-4.57c.74-.32,1.66-.57,2.74-.76,1.09-.19,2.25-.28,3.5-.28Z"/>
      <path class="st0" d="M1070.81,477.06c-1.01,0-2.04-.05-3.1-.16s-2.07-.25-3.02-.44-1.78-.42-2.47-.72l-.16-.32c.29-.82.54-1.67.75-2.54.21-.88.41-1.79.6-2.74l3.34-17.06c.13-.58.26-1.26.4-2.03.13-.77.24-1.54.32-2.31.08-.77.11-1.43.08-1.99l.24-.4h5.88l-4.57,23.46c-.16.77-.34,1.46-.56,2.09-.21.62-.41,1.13-.6,1.53l-.32-1.35c.4.19.94.35,1.63.5.69.15,1.44.22,2.27.22,1.56,0,2.93-.35,4.1-1.05,1.17-.7,2.07-1.7,2.7-3,.64-1.3.95-2.85.95-4.65s-.46-3.22-1.37-4.1c-.91-.88-2.21-1.31-3.88-1.31-.77,0-1.43.07-1.99.2-.56.13-1.02.27-1.39.4l.64-3.98c.66-.32,1.38-.56,2.15-.72s1.6-.24,2.51-.24c1.78,0,3.34.36,4.69,1.09,1.35.73,2.41,1.8,3.18,3.2.77,1.41,1.15,3.12,1.15,5.13,0,2.81-.6,5.2-1.81,7.18-1.21,1.98-2.87,3.49-4.99,4.53-2.12,1.05-4.57,1.57-7.36,1.57Z"/>
      <path class="st0" d="M1087.59,476.58l2.9-14.99c.11-.56.22-1.23.36-2.01.13-.78.25-1.56.34-2.33.09-.77.13-1.43.1-1.99l.2-.4h5.88l-4.21,21.71h-5.57ZM1095.31,451.45c-.9,0-1.59-.24-2.07-.74-.48-.49-.72-1.09-.72-1.81,0-1.09.38-1.96,1.13-2.62.75-.66,1.61-.99,2.56-.99.9,0,1.59.25,2.07.74.48.49.72,1.09.72,1.81,0,1.09-.37,1.96-1.11,2.62-.74.66-1.6.99-2.58.99Z"/>
      <path class="st0" d="M1102.82,461.63c.16-.88.31-1.78.46-2.7.15-.93.22-1.82.22-2.66l.24-.32c.77-.26,1.63-.5,2.58-.72.95-.21,1.97-.38,3.04-.5,1.07-.12,2.15-.18,3.24-.18.5,0,1.08.01,1.73.04.65.03,1.25.08,1.81.16l-.92,4.53h-.36c-.4-.11-.82-.18-1.27-.22-.45-.04-.92-.06-1.39-.06-.93,0-1.79.06-2.58.18-.79.12-1.48.3-2.07.54l.99-1.63c.03.58.02,1.23-.02,1.95-.04.72-.14,1.46-.3,2.23l-2.74,14.31h-5.57l2.9-14.95Z"/>
      <path class="st0" d="M1121.79,486.12c-.69,0-1.42-.04-2.19-.12-.77-.08-1.52-.2-2.25-.36-.73-.16-1.36-.36-1.89-.6l.92-4.61h.36c.74.4,1.6.69,2.58.87.98.19,1.92.28,2.82.28,2.39,0,4.21-.54,5.49-1.61,1.27-1.07,2.08-2.71,2.43-4.91l2.58-13.32c.16-.74.31-1.38.46-1.91.15-.53.31-.99.5-1.39l.48,1.15c-.64-.32-1.23-.54-1.77-.68-.54-.13-1.27-.2-2.17-.2-1.54,0-2.88.34-4.02,1.03-1.14.69-2.02,1.66-2.64,2.92-.62,1.26-.93,2.74-.93,4.43s.46,3,1.39,3.82c.93.82,2.29,1.23,4.09,1.23.8,0,1.45-.07,1.97-.2.52-.13.93-.28,1.25-.44l-.83,4.25c-.24.13-.56.25-.97.36-.41.11-.86.19-1.33.26-.48.07-.97.1-1.47.1-1.91,0-3.6-.34-5.07-1.01-1.47-.68-2.62-1.69-3.44-3.04-.82-1.35-1.23-3.05-1.23-5.09,0-2.65.57-4.94,1.71-6.86,1.14-1.92,2.75-3.41,4.83-4.45,2.08-1.05,4.53-1.57,7.34-1.57,1.64,0,3.19.13,4.63.4,1.44.27,2.8.64,4.08,1.11l.2.36c-.19.45-.36.97-.54,1.55-.17.58-.33,1.18-.48,1.79-.15.61-.27,1.18-.38,1.71l-2.78,14.23c-.45,2.28-1.24,4.2-2.37,5.77-1.13,1.56-2.63,2.74-4.51,3.54-1.88.8-4.16,1.19-6.84,1.19Z"/>
      <path class="st0" d="M1152.68,454.35c2.25,0,4.21.34,5.87,1.01,1.66.68,2.94,1.71,3.86,3.1.92,1.39,1.37,3.15,1.37,5.27,0,1.83-.3,3.55-.89,5.15-.6,1.6-1.43,3.01-2.5,4.21-1.07,1.21-2.36,2.15-3.86,2.84-1.5.69-3.16,1.03-4.99,1.03-3.1,0-5.39-.74-6.86-2.23-1.47-1.48-2.21-3.39-2.21-5.73,0-.85.08-1.71.24-2.58.16-.88.34-1.71.56-2.5h16.94v3.62h-12.25c-.05.27-.1.54-.14.81-.04.28-.06.52-.06.74,0,1.14.31,2.05.93,2.72.62.68,1.64,1.01,3.04,1.01,1.01,0,1.91-.22,2.7-.68.8-.45,1.48-1.05,2.05-1.81s1-1.62,1.29-2.6c.29-.98.44-2.01.44-3.1v-.68c0-1.83-.56-3.16-1.69-4-1.13-.83-2.66-1.25-4.59-1.25-1.22,0-2.37.13-3.46.38s-1.94.54-2.54.85h-.4l.92-4.57c.74-.32,1.66-.57,2.74-.76,1.09-.19,2.25-.28,3.5-.28Z"/>
      <path class="st0" d="M824.18,523.78c-.58.32-1.23.56-1.95.74-.72.17-1.52.26-2.43.26-1.96,0-3.68-.35-5.17-1.05-1.48-.7-2.63-1.75-3.44-3.14-.81-1.39-1.21-3.15-1.21-5.27,0-2.73.57-5.08,1.71-7.06,1.14-1.97,2.76-3.5,4.85-4.57,2.09-1.07,4.56-1.61,7.4-1.61,1.64,0,3.21.13,4.69.38,1.48.25,2.85.62,4.1,1.09l.2.4c-.27.66-.51,1.43-.74,2.31-.23.88-.42,1.71-.58,2.5l-4.81,24.77h-5.57l4.69-24.1c.16-.77.31-1.44.46-2.01.15-.57.39-1.12.74-1.65l.56,1.59c-.53-.26-1.01-.47-1.43-.62-.42-.15-.86-.25-1.31-.32-.45-.07-.99-.1-1.63-.1-1.59,0-2.96.36-4.1,1.07-1.14.72-2.02,1.73-2.62,3.04-.61,1.31-.91,2.86-.91,4.63s.44,3.12,1.31,4.02c.87.9,2.21,1.35,4.02,1.35.8,0,1.51-.07,2.15-.22.64-.15,1.23-.36,1.79-.66l-.76,4.21Z"/>
      <path class="st0" d="M835.15,524.29l4.57-23.5c.11-.58.23-1.26.36-2.03.13-.77.25-1.54.34-2.31s.13-1.43.1-1.99l.2-.4h5.88l-5.88,30.22h-5.57Z"/>
      <path class="st0" d="M847.83,515.79c0-1.78.26-3.47.78-5.09.52-1.62,1.29-3.08,2.33-4.39s2.33-2.35,3.88-3.1c1.55-.75,3.37-1.13,5.47-1.13,2.97,0,5.27.78,6.92,2.35,1.64,1.56,2.47,3.75,2.47,6.56,0,1.72-.25,3.41-.76,5.05s-1.27,3.12-2.31,4.41c-1.03,1.3-2.33,2.33-3.9,3.1-1.56.77-3.38,1.15-5.45,1.15-3,0-5.31-.78-6.96-2.35-1.64-1.56-2.47-3.75-2.47-6.56ZM853.52,515.94c0,1.48.36,2.6,1.07,3.34s1.71,1.11,2.98,1.11c1.14,0,2.12-.3,2.94-.92.82-.61,1.48-1.4,1.99-2.37.5-.97.88-2.01,1.13-3.14.25-1.13.38-2.19.38-3.2,0-1.48-.36-2.6-1.07-3.34-.72-.74-1.71-1.11-2.98-1.11-1.17,0-2.16.31-2.98.92-.82.61-1.48,1.4-1.99,2.37-.5.97-.87,2.01-1.11,3.12-.24,1.11-.36,2.19-.36,3.22Z"/>
      <path class="st0" d="M881.11,524.77c-1.01,0-2.04-.05-3.1-.16-1.06-.11-2.07-.25-3.02-.44-.95-.19-1.78-.42-2.47-.72l-.16-.32c.29-.82.54-1.67.76-2.54.21-.87.41-1.79.6-2.74l3.34-17.06c.13-.58.26-1.26.4-2.03.13-.77.24-1.54.32-2.31s.11-1.43.08-1.99l.24-.4h5.88l-4.57,23.46c-.16.77-.34,1.46-.56,2.09-.21.62-.41,1.13-.6,1.53l-.32-1.35c.4.19.94.35,1.63.5.69.15,1.44.22,2.27.22,1.56,0,2.93-.35,4.1-1.05,1.17-.7,2.07-1.7,2.7-3s.95-2.85.95-4.65-.46-3.22-1.37-4.1c-.91-.87-2.21-1.31-3.88-1.31-.77,0-1.43.07-1.99.2-.56.13-1.02.27-1.39.4l.64-3.98c.66-.32,1.38-.56,2.15-.72.77-.16,1.6-.24,2.5-.24,1.78,0,3.34.36,4.69,1.09,1.35.73,2.41,1.8,3.18,3.2.77,1.41,1.15,3.12,1.15,5.13,0,2.81-.6,5.2-1.81,7.18-1.21,1.97-2.87,3.49-4.99,4.53-2.12,1.05-4.57,1.57-7.36,1.57Z"/>
      <path class="st0" d="M907.28,524.77c-3,0-5.28-.51-6.84-1.53-1.56-1.02-2.35-2.62-2.35-4.79,0-1.75.46-3.17,1.37-4.25s2.15-1.89,3.72-2.41c1.56-.52,3.29-.78,5.17-.78,1.14,0,2.13.1,2.96.3.83.2,1.44.37,1.81.5l-.4,3.74c-.56-.26-1.15-.48-1.77-.64-.62-.16-1.41-.24-2.37-.24-1.64,0-2.93.28-3.86.83-.93.56-1.39,1.43-1.39,2.62,0,1.01.38,1.72,1.15,2.13.77.41,1.76.62,2.98.62.85,0,1.67-.07,2.46-.22.8-.14,1.51-.36,2.15-.66l-.36,1.55c-.16-.4-.26-.84-.3-1.33-.04-.49-.03-1.01.02-1.55.05-.54.13-1.05.24-1.53l1.07-5.57c.42-1.91.25-3.25-.52-4.02-.77-.77-2.15-1.15-4.14-1.15-1.19,0-2.29.11-3.3.34-1.01.23-1.87.48-2.58.78h-.48l.88-4.45c1.03-.32,2.08-.56,3.14-.74,1.06-.17,2.21-.26,3.46-.26,2.36,0,4.27.34,5.75,1.03,1.47.69,2.48,1.76,3.02,3.2.54,1.45.59,3.29.14,5.55l-.87,4.61c-.21,1.11-.4,2.22-.58,3.32s-.25,2.17-.22,3.2l-.24.32c-1.41.45-2.85.81-4.33,1.07-1.48.26-3.02.4-4.61.4Z"/>
      <path class="st0" d="M922.11,524.29l4.57-23.5c.11-.58.23-1.26.36-2.03.13-.77.25-1.54.34-2.31s.13-1.43.1-1.99l.2-.4h5.88l-5.88,30.22h-5.57Z"/>
      <path class="st0" d="M952.88,524.77c-1.01,0-2.04-.05-3.1-.16-1.06-.11-2.07-.25-3.02-.44-.95-.19-1.78-.42-2.47-.72l-.16-.32c.29-.82.54-1.67.76-2.54.21-.87.41-1.79.6-2.74l3.34-17.06c.13-.58.26-1.26.4-2.03.13-.77.24-1.54.32-2.31s.11-1.43.08-1.99l.24-.4h5.88l-4.57,23.46c-.16.77-.34,1.46-.56,2.09-.21.62-.41,1.13-.6,1.53l-.32-1.35c.4.19.94.35,1.63.5.69.15,1.44.22,2.27.22,1.56,0,2.93-.35,4.1-1.05,1.17-.7,2.07-1.7,2.7-3s.95-2.85.95-4.65-.46-3.22-1.37-4.1c-.91-.87-2.21-1.31-3.88-1.31-.77,0-1.43.07-1.99.2-.56.13-1.02.27-1.39.4l.64-3.98c.66-.32,1.38-.56,2.15-.72.77-.16,1.6-.24,2.5-.24,1.78,0,3.34.36,4.69,1.09,1.35.73,2.41,1.8,3.18,3.2.77,1.41,1.15,3.12,1.15,5.13,0,2.81-.6,5.2-1.81,7.18s-2.87,3.49-4.99,4.53c-2.12,1.05-4.57,1.57-7.36,1.57Z"/>
      <path class="st0" d="M969.66,524.29l2.9-14.99c.11-.56.22-1.23.36-2.01.13-.78.24-1.56.34-2.33.09-.77.12-1.43.1-1.99l.2-.4h5.88l-4.21,21.71h-5.57ZM977.38,499.16c-.9,0-1.59-.24-2.07-.74-.48-.49-.72-1.09-.72-1.81,0-1.09.38-1.96,1.13-2.62.76-.66,1.61-.99,2.56-.99.9,0,1.59.25,2.07.74.48.49.71,1.09.71,1.81,0,1.09-.37,1.96-1.11,2.62-.74.66-1.6.99-2.58.99Z"/>
      <path class="st0" d="M984.02,507.12l.88-4.53h17.38l.32.4c.03,1.09-.15,2.04-.52,2.84-.37.81-.84,1.54-1.41,2.19-.57.65-1.16,1.25-1.77,1.81l-8.47,7.79c-.53.5-1.09,1.05-1.67,1.65-.58.6-.92,1.13-.99,1.61l-1.55-.99h13.76l-.83,4.41h-18.21l-.32-.4c-.03-1.09.15-2.04.52-2.86.37-.82.85-1.55,1.43-2.19.58-.64,1.17-1.23,1.75-1.79l8.47-7.79c.58-.5,1.13-1.03,1.63-1.59s.85-1.15,1.03-1.79l1.63,1.23h-13.04Z"/>
      <path class="st0" d="M1003.86,524.29l2.9-14.95c.18-.88.34-1.78.48-2.7.13-.93.21-1.82.24-2.66l.2-.32c.8-.29,1.73-.56,2.8-.79,1.07-.24,2.16-.43,3.26-.58,1.1-.15,2.1-.22,3-.22,1.96,0,3.64.23,5.05.7,1.4.46,2.49,1.21,3.26,2.25.77,1.03,1.15,2.44,1.15,4.21,0,.42-.03.89-.08,1.39-.05.5-.13,1.03-.24,1.59l-2.31,12.09h-5.57l2.31-12.09c.08-.4.13-.76.16-1.09s.04-.64.04-.93c0-1.27-.37-2.19-1.09-2.76-.73-.57-1.84-.85-3.32-.85-.85,0-1.68.1-2.5.3-.82.2-1.51.42-2.07.66l.91-1.59c.08.53.09,1.15.04,1.85-.05.7-.15,1.44-.28,2.21l-2.78,14.31h-5.57Z"/>
      <path class="st0" d="M1041.71,524.69c-2.25,0-4.21-.34-5.87-1.03-1.66-.69-2.94-1.72-3.86-3.1-.92-1.38-1.37-3.13-1.37-5.25,0-1.85.29-3.58.88-5.19s1.41-3.01,2.48-4.21c1.07-1.21,2.37-2.15,3.88-2.82s3.18-1.01,5.01-1.01c3.1,0,5.39.74,6.86,2.21s2.21,3.39,2.21,5.75c0,.85-.07,1.71-.22,2.58-.15.88-.34,1.7-.58,2.47h-16.94v-3.58h12.25c.05-.29.1-.58.14-.85.04-.28.06-.52.06-.74,0-1.14-.32-2.04-.96-2.7-.64-.66-1.64-.99-3.02-.99-1.01,0-1.91.22-2.7.66-.79.44-1.48,1.03-2.05,1.79-.57.76-1,1.63-1.29,2.62-.29.99-.44,2.02-.44,3.08v.68c0,1.83.56,3.16,1.69,4,1.13.83,2.66,1.25,4.59,1.25,1.22,0,2.37-.12,3.46-.36,1.09-.24,1.93-.52,2.54-.83h.4l-.92,4.53c-.77.32-1.7.58-2.78.78-1.09.2-2.24.3-3.46.3Z"/>
      <path class="st0" d="M1054.63,518.85h.4c.88.45,1.9.8,3.06,1.05,1.17.25,2.37.38,3.62.38.85,0,1.66-.05,2.42-.16.77-.11,1.38-.32,1.85-.66.46-.33.7-.84.7-1.53,0-.74-.3-1.26-.91-1.57-.61-.3-1.43-.58-2.47-.82l-1.35-.32c-1.17-.29-2.19-.66-3.08-1.11-.89-.45-1.58-1.04-2.07-1.77-.49-.73-.74-1.66-.74-2.8,0-1.35.38-2.58,1.15-3.7.77-1.11,1.95-1.99,3.56-2.64,1.6-.65,3.65-.97,6.14-.97,1.27,0,2.45.07,3.52.2,1.07.13,2.07.36,3,.68l-.88,4.57h-.4c-.93-.4-1.83-.68-2.7-.86-.87-.17-1.86-.26-2.94-.26-1.51,0-2.72.21-3.62.62s-1.35,1.07-1.35,1.97c0,.53.15.93.44,1.21.29.28.7.5,1.23.66s1.14.33,1.83.52l1.31.32c1.06.27,2.03.62,2.9,1.07.87.45,1.58,1.07,2.13,1.85.54.78.82,1.76.82,2.92,0,2.31-.95,4.04-2.84,5.19-1.9,1.15-4.5,1.73-7.81,1.73-1.38,0-2.76-.09-4.16-.26s-2.6-.46-3.64-.85l.88-4.65Z"/>
      <path class="st0" d="M1086.4,502.07c2.25,0,4.21.34,5.87,1.01,1.66.68,2.94,1.71,3.86,3.1.92,1.39,1.37,3.15,1.37,5.27,0,1.83-.3,3.54-.89,5.15-.6,1.6-1.43,3.01-2.5,4.21-1.07,1.21-2.36,2.15-3.86,2.84-1.5.69-3.16,1.03-4.99,1.03-3.1,0-5.39-.74-6.86-2.23-1.47-1.48-2.21-3.39-2.21-5.73,0-.85.08-1.71.24-2.58.16-.87.34-1.71.56-2.5h16.94v3.62h-12.25c-.05.27-.1.54-.14.82-.04.28-.06.52-.06.74,0,1.14.31,2.05.93,2.72.62.68,1.64,1.01,3.04,1.01,1.01,0,1.91-.23,2.7-.68.8-.45,1.48-1.05,2.05-1.81s1-1.62,1.29-2.6c.29-.98.44-2.01.44-3.1v-.68c0-1.83-.56-3.16-1.69-4-1.13-.83-2.66-1.25-4.59-1.25-1.22,0-2.37.13-3.46.38-1.09.25-1.94.54-2.54.86h-.4l.92-4.57c.74-.32,1.66-.57,2.74-.75s2.25-.28,3.5-.28Z"/>
      <path class="st0" d="M1102.23,523.42c-.48-.42-.71-.96-.7-1.61.01-.65.29-1.17.82-1.57.42-.64.95-1.03,1.57-1.19.62-.16,1.23-.05,1.81.32.48.42.7.96.68,1.61-.03.65-.29,1.19-.79,1.61-.42.64-.96,1.03-1.59,1.19-.64.16-1.23.04-1.79-.36ZM1102.86,515.07c.05-.66.12-1.42.2-2.27.08-.85.2-1.79.36-2.82.16-1.03.36-2.16.6-3.38l2.11-10.93h5.77l.04.4c-.19.48-.37,1.08-.56,1.81-.19.73-.35,1.46-.5,2.19-.15.73-.27,1.33-.38,1.81l-.92,4.73c-.24,1.3-.49,2.5-.75,3.6-.27,1.1-.52,2.06-.76,2.88-.24.82-.44,1.49-.6,1.99h-4.61Z"/>
    </g>
  </g>
</svg>