<svg width="264" height="264" viewBox="0 0 264 264" fill="none" xmlns="http://www.w3.org/2000/svg">
<path d="M132 44.33C139.718 44.33 145.975 38.0732 145.975 30.3551C145.975 22.637 139.718 16.3802 132 16.3802C124.282 16.3802 118.025 22.637 118.025 30.3551C118.025 38.0732 124.282 44.33 132 44.33Z" fill="white"/>
<path d="M193.417 96.8269L202.593 106.113L170.845 137.488C167.237 141.054 165.205 145.914 165.205 150.988V158.442H152.147V111.32C152.147 101.19 156.276 91.3 163.482 84.1842L193.678 54.3473L202.855 63.6338L172.663 93.4707C167.924 98.1518 165.208 104.656 165.208 111.32V124.703L193.419 96.8293L193.417 96.8269Z" fill="white"/>
<path d="M70.5833 96.8269L61.4069 106.113L93.1553 137.488C96.7633 141.054 98.7947 145.914 98.7947 150.988V158.442H111.853V111.32C111.853 101.19 107.724 91.3 100.518 84.1842L70.3218 54.3473L61.1453 63.6338L91.3367 93.4707C96.0764 98.1518 98.7922 104.656 98.7922 111.32V124.703L70.5809 96.8293L70.5833 96.8269Z" fill="white"/>
<path d="M181.505 42.262L145.877 77.8898C141.14 82.6296 138.529 88.9289 138.529 95.6315V158.439H125.471V95.6315C125.471 88.9289 122.86 82.6296 118.123 77.8898L82.4951 42.262L91.7278 33.0293L127.356 68.6571C129.096 70.3975 130.648 72.2798 132 74.2744C133.352 72.2798 134.902 70.3975 136.644 68.6522L172.272 33.0293L181.505 42.262Z" fill="white"/>
<path d="M4.44153 181.972H11.0831V208.834H4.44153V181.972ZM7.76108 179.508C7.01553 179.508 6.38731 179.273 5.87642 178.799C5.36553 178.327 5.11131 177.679 5.11131 176.858C5.11131 176.037 5.36553 175.391 5.87642 174.917C6.38486 174.445 7.01308 174.208 7.76108 174.208C8.50908 174.208 9.13486 174.445 9.64575 174.917C10.1542 175.391 10.4109 176.051 10.4109 176.895C10.4109 177.738 10.1542 178.356 9.64575 178.816C9.13731 179.276 8.50908 179.505 7.76108 179.505V179.508Z" fill="white"/>
<path d="M16.7542 208.834V196.223C16.7542 195.727 16.7469 195.084 16.7346 194.302C16.7224 193.517 16.6833 192.747 16.6222 191.987C16.5586 191.229 16.478 190.625 16.3802 190.178L16.4926 189.88C17.314 189.532 18.2526 189.207 19.3086 188.912C20.3671 188.613 21.4842 188.364 22.6673 188.166C23.848 187.968 25.0237 187.868 26.1922 187.868C27.4853 187.868 28.7417 188.005 29.9615 188.278C31.1789 188.552 32.2813 189.031 33.264 189.716C34.2466 190.4 35.024 191.351 35.596 192.568C36.168 193.788 36.454 195.331 36.454 197.196V208.836H29.8882V197.418C29.8882 196.25 29.7146 195.355 29.3651 194.732C29.0155 194.111 28.5266 193.676 27.8911 193.426C27.258 193.177 26.5295 193.052 25.7082 193.052C24.9871 193.052 24.3026 193.14 23.6573 193.314C23.0095 193.488 22.4277 193.664 21.9046 193.837L22.836 192.383C23.0095 192.757 23.1342 193.248 23.21 193.857C23.2833 194.465 23.3224 195.23 23.3224 196.152V208.836H16.7566L16.7542 208.834Z" fill="white"/>
<path d="M40.9664 202.828H41.2647C42.1593 203.199 43.2422 203.537 44.5109 203.835C45.7796 204.133 47.0482 204.282 48.3169 204.282C48.8131 204.282 49.2751 204.263 49.698 204.226C50.1209 204.189 50.4876 204.121 50.798 204.021C51.1084 203.92 51.3504 203.759 51.5264 203.537C51.7 203.312 51.788 203.014 51.788 202.642C51.788 202.094 51.5582 201.72 51.0987 201.522C50.6391 201.324 49.8373 201.126 48.6933 200.926L47.014 200.628C45.1244 200.281 43.6236 199.67 42.5187 198.799C41.4113 197.929 40.8589 196.597 40.8589 194.808C40.8589 193.514 41.206 192.351 41.9027 191.319C42.5993 190.288 43.6944 189.479 45.1856 188.894C46.6791 188.31 48.6053 188.017 50.9691 188.017C52.0887 188.017 53.1153 188.078 54.0467 188.203C54.978 188.327 55.9167 188.528 56.8627 188.799V193.984H56.5644C55.5451 193.588 54.5502 193.307 53.5798 193.145C52.6093 192.984 51.6902 192.903 50.82 192.903C49.676 192.903 48.7813 193.021 48.1336 193.258C47.4858 193.495 47.1631 193.923 47.1631 194.544C47.1631 195.018 47.4173 195.353 47.9282 195.551C48.4367 195.749 49.1773 195.937 50.1478 196.11L51.8638 196.409C53.0322 196.609 54.0956 196.932 55.0538 197.379C56.012 197.829 56.7771 198.455 57.3491 199.264C57.9211 200.073 58.2071 201.112 58.2071 202.38C58.2071 204.668 57.354 206.367 55.6502 207.472C53.9464 208.58 51.3798 209.132 47.9453 209.132C46.7769 209.132 45.5693 209.032 44.3276 208.834C43.0833 208.636 41.9638 208.386 40.9689 208.088V202.828H40.9664Z" fill="white"/>
<path d="M70.9255 209.281C67.6427 209.281 65.1664 208.79 63.5018 207.807C61.8347 206.824 61.0011 205.138 61.0011 202.752C61.0011 201.234 61.38 200.004 62.1402 199.058C62.898 198.115 63.9491 197.423 65.2935 196.988C66.6355 196.553 68.1658 196.335 69.8818 196.335C70.7275 196.335 71.4975 196.387 72.1942 196.484C72.8909 196.585 73.5484 196.709 74.1718 196.858V200.701C73.7978 200.576 73.3015 200.464 72.6806 200.364C72.0573 200.264 71.4609 200.215 70.8889 200.215C69.5713 200.215 68.5935 200.4 67.9604 200.774C67.3249 201.148 67.0095 201.769 67.0095 202.642C67.0095 203.515 67.3273 204.121 67.9604 204.47C68.5935 204.82 69.4955 204.994 70.664 204.994C71.434 204.994 72.182 204.913 72.9031 204.752C73.6242 204.59 74.2329 204.312 74.7315 203.913L73.986 205.742C73.8124 205.343 73.6731 204.981 73.5753 204.659C73.4751 204.336 73.4018 203.994 73.3504 203.632C73.3015 203.273 73.2698 202.838 73.2575 202.327C73.2453 201.818 73.238 201.178 73.238 200.405V196.487C73.238 195.468 73.0644 194.683 72.7149 194.138C72.3653 193.59 71.8398 193.224 71.1284 193.038C70.4195 192.852 69.5298 192.759 68.4615 192.759C67.3933 192.759 66.3789 192.852 65.4207 193.038C64.4624 193.224 63.6851 193.453 63.0887 193.73H62.7147V188.728C63.6093 188.479 64.6115 188.276 65.7189 188.112C66.8262 187.951 67.9995 187.87 69.2438 187.87C70.7618 187.87 72.1551 188.007 73.4213 188.281C74.69 188.555 75.79 189.022 76.7238 189.682C77.6551 190.342 78.3713 191.248 78.87 192.405C79.3662 193.561 79.6155 195.047 79.6155 196.863V201.378C79.6155 201.901 79.6278 202.547 79.6522 203.319C79.6767 204.089 79.7133 204.849 79.7647 205.595C79.8135 206.34 79.9015 206.939 80.0262 207.387L79.8771 207.685C79.0069 208.008 78.0853 208.289 77.1173 208.523C76.1493 208.758 75.1398 208.946 74.096 209.083C73.0522 209.22 71.9938 209.288 70.9255 209.288V209.281Z" fill="white"/>
<path d="M84.9909 208.834V196.223C84.9909 195.727 84.9835 195.084 84.9713 194.302C84.9591 193.517 84.92 192.747 84.8589 191.987C84.7953 191.229 84.7147 190.625 84.6169 190.178L84.7293 189.88C85.5507 189.532 86.4893 189.207 87.5453 188.912C88.6038 188.613 89.7209 188.364 90.904 188.166C92.0847 187.968 93.2604 187.868 94.4289 187.868C95.722 187.868 96.9784 188.005 98.1982 188.278C99.4155 188.552 100.518 189.031 101.501 189.716C102.483 190.4 103.261 191.351 103.833 192.568C104.405 193.788 104.691 195.331 104.691 197.196V208.836H98.1249V197.418C98.1249 196.25 97.9513 195.355 97.6018 194.732C97.2522 194.111 96.7633 193.676 96.1278 193.426C95.4947 193.177 94.7662 193.052 93.9449 193.052C93.2238 193.052 92.5393 193.14 91.894 193.314C91.2462 193.488 90.6644 193.664 90.1413 193.837L91.0727 192.383C91.2462 192.757 91.3709 193.248 91.4467 193.857C91.5224 194.465 91.5591 195.23 91.5591 196.152V208.836H84.9933L84.9909 208.834Z" fill="white"/>
<path d="M119.018 181.972H125.659V208.834H119.018V181.972ZM122.337 179.508C121.592 179.508 120.963 179.273 120.452 178.799C119.942 178.327 119.687 177.679 119.687 176.858C119.687 176.037 119.942 175.391 120.452 174.917C120.961 174.445 121.589 174.208 122.337 174.208C123.085 174.208 123.711 174.445 124.222 174.917C124.73 175.391 124.987 176.051 124.987 176.895C124.987 177.738 124.73 178.356 124.222 178.816C123.713 179.276 123.085 179.505 122.337 179.505V179.508Z" fill="white"/>
<path d="M131.33 208.834V196.223C131.33 195.727 131.323 195.084 131.311 194.302C131.298 193.517 131.259 192.747 131.198 191.987C131.135 191.229 131.054 190.625 130.956 190.178L131.069 189.88C131.89 189.532 132.829 189.207 133.885 188.912C134.943 188.613 136.063 188.364 137.243 188.166C138.424 187.968 139.6 187.868 140.768 187.868C142.061 187.868 143.318 188.005 144.538 188.278C145.755 188.552 146.857 189.031 147.84 189.716C148.823 190.4 149.6 191.351 150.17 192.568C150.742 193.788 151.028 195.331 151.028 197.196V208.836H144.462V197.418C144.462 196.25 144.288 195.355 143.939 194.732C143.592 194.111 143.1 193.676 142.465 193.426C141.829 193.177 141.103 193.052 140.282 193.052C139.561 193.052 138.876 193.14 138.231 193.314C137.583 193.488 136.999 193.664 136.478 193.837L137.41 192.383C137.583 192.757 137.708 193.248 137.784 193.857C137.857 194.465 137.896 195.23 137.896 196.152V208.836H131.33V208.834Z" fill="white"/>
<path d="M163.115 208.834H156.55V186.672C156.55 186.174 156.542 185.548 156.532 184.788C156.52 184.03 156.481 183.284 156.42 182.549C156.359 181.815 156.276 181.224 156.178 180.776L156.29 180.478H163.118V208.834H163.115ZM161.959 198.127L170.055 188.428H176.956V188.875C176.706 189.073 176.396 189.374 176.024 189.77C175.653 190.168 175.272 190.598 174.888 191.055C174.502 191.515 174.135 191.945 173.788 192.341L166.96 199.841L166.997 195.663L174.235 205.138C174.707 205.761 175.237 206.382 175.822 207.005C176.406 207.626 176.873 208.086 177.22 208.386V208.834H169.757L161.959 198.125V198.127Z" fill="white"/>
<path d="M180.055 208.834V194.656C180.055 194.157 180.048 193.524 180.036 192.754C180.023 191.984 179.984 191.231 179.923 190.496C179.86 189.762 179.779 189.171 179.681 188.723L179.794 188.425H186.621V208.831H180.055V208.834ZM183.336 185.48C182.316 185.48 181.483 185.186 180.835 184.602C180.187 184.018 179.865 183.177 179.865 182.084C179.865 180.992 180.187 180.151 180.835 179.566C181.483 178.982 182.314 178.689 183.336 178.689C184.358 178.689 185.225 178.982 185.873 179.566C186.521 180.151 186.843 180.992 186.843 182.084C186.843 183.177 186.521 184.018 185.873 184.602C185.225 185.186 184.382 185.48 183.336 185.48Z" fill="white"/>
<path d="M191.434 202.828H191.732C192.627 203.199 193.712 203.537 194.979 203.835C196.247 204.133 197.516 204.282 198.785 204.282C199.281 204.282 199.743 204.263 200.166 204.226C200.586 204.189 200.955 204.121 201.266 204.021C201.576 203.92 201.818 203.759 201.992 203.537C202.168 203.312 202.253 203.014 202.253 202.642C202.253 202.094 202.024 201.72 201.566 201.522C201.104 201.324 200.303 201.126 199.159 200.926L197.479 200.628C195.587 200.281 194.091 199.67 192.984 198.799C191.877 197.929 191.324 196.597 191.324 194.808C191.324 193.514 191.671 192.351 192.368 191.319C193.065 190.288 194.16 189.479 195.653 188.894C197.144 188.31 199.071 188.017 201.434 188.017C202.554 188.017 203.578 188.078 204.512 188.203C205.443 188.327 206.382 188.528 207.328 188.799V193.984H207.027C206.008 193.588 205.016 193.307 204.045 193.145C203.075 192.984 202.153 192.903 201.283 192.903C200.139 192.903 199.244 193.021 198.599 193.258C197.951 193.495 197.628 193.923 197.628 194.544C197.628 195.018 197.883 195.353 198.394 195.551C198.902 195.749 199.643 195.937 200.613 196.11L202.329 196.409C203.498 196.609 204.561 196.932 205.519 197.379C206.477 197.829 207.242 198.455 207.814 199.264C208.386 200.073 208.672 201.112 208.672 202.38C208.672 204.668 207.822 206.367 206.116 207.472C204.412 208.58 201.845 209.132 198.413 209.132C197.245 209.132 196.035 209.032 194.795 208.834C193.551 208.636 192.432 208.386 191.437 208.088V202.828H191.434ZM201.32 207.939V210.102C202.613 210.252 203.605 210.687 204.304 211.408C205.001 212.129 205.346 213.014 205.346 214.058C205.346 215.028 205.096 215.81 204.6 216.409C204.104 217.006 203.449 217.441 202.642 217.714C201.833 217.988 200.955 218.125 200.012 218.125C199.391 218.125 198.824 218.088 198.315 218.013C197.807 217.937 197.328 217.827 196.878 217.675V214.879H197.027C197.474 215.028 197.9 215.14 198.298 215.216C198.694 215.29 199.168 215.329 199.716 215.329C200.51 215.329 201.063 215.199 201.373 214.938C201.686 214.676 201.843 214.334 201.843 213.911C201.843 213.388 201.557 212.984 200.985 212.698C200.413 212.412 199.555 212.268 198.411 212.268V207.942H201.322L201.32 207.939Z" fill="white"/>
<path d="M221.393 209.281C218.11 209.281 215.634 208.79 213.967 207.807C212.3 206.824 211.469 205.138 211.469 202.752C211.469 201.234 211.848 200.004 212.606 199.058C213.366 198.115 214.414 197.423 215.759 196.988C217.101 196.553 218.631 196.335 220.347 196.335C221.193 196.335 221.963 196.387 222.66 196.484C223.356 196.585 224.016 196.709 224.637 196.858V200.701C224.266 200.576 223.767 200.464 223.144 200.364C222.52 200.264 221.926 200.215 221.354 200.215C220.034 200.215 219.059 200.4 218.426 200.774C217.793 201.148 217.475 201.769 217.475 202.642C217.475 203.515 217.793 204.121 218.426 204.47C219.061 204.82 219.963 204.994 221.132 204.994C221.902 204.994 222.647 204.913 223.368 204.752C224.09 204.59 224.698 204.312 225.197 203.913L224.451 205.742C224.278 205.343 224.138 204.981 224.041 204.659C223.94 204.336 223.867 203.994 223.816 203.632C223.764 203.273 223.735 202.838 223.72 202.327C223.708 201.818 223.703 201.178 223.703 200.405V196.487C223.703 195.468 223.53 194.683 223.18 194.138C222.833 193.59 222.303 193.224 221.594 193.038C220.885 192.852 219.995 192.759 218.927 192.759C217.859 192.759 216.844 192.852 215.886 193.038C214.928 193.224 214.15 193.453 213.554 193.73H213.182V188.728C214.077 188.479 215.079 188.276 216.187 188.112C217.292 187.951 218.467 187.87 219.712 187.87C221.227 187.87 222.62 188.007 223.889 188.281C225.158 188.555 226.258 189.022 227.192 189.682C228.123 190.342 228.839 191.248 229.338 192.405C229.834 193.561 230.083 195.047 230.083 196.863V201.378C230.083 201.901 230.096 202.547 230.12 203.319C230.144 204.089 230.181 204.849 230.232 205.595C230.281 206.34 230.369 206.939 230.494 207.387L230.345 207.685C229.475 208.008 228.556 208.289 227.585 208.523C226.615 208.76 225.608 208.946 224.561 209.083C223.518 209.22 222.459 209.288 221.391 209.288L221.393 209.281Z" fill="white"/>
<path d="M232.882 193.5V188.425H247.656V193.5H232.882ZM236.241 208.834V188.762C236.241 186.724 236.632 185.064 237.414 183.781C238.199 182.5 239.304 181.561 240.734 180.965C242.164 180.368 243.836 180.07 245.752 180.07C246.449 180.07 247.07 180.107 247.617 180.182C248.165 180.256 248.624 180.368 248.998 180.517V185.367H248.588C248.314 185.242 247.996 185.137 247.637 185.049C247.275 184.964 246.86 184.92 246.388 184.92C245.192 184.92 244.298 185.218 243.701 185.814C243.105 186.411 242.804 187.42 242.804 188.838V208.836H236.238L236.241 208.834Z" fill="white"/>
<path d="M252.993 208.834V194.656C252.993 194.157 252.985 193.532 252.976 192.771C252.963 192.014 252.924 191.261 252.863 190.515C252.802 189.77 252.719 189.171 252.621 188.723L252.77 188.425H259.561V208.831H252.995L252.993 208.834Z" fill="white"/>
<path d="M60.0135 248.5V221.638H66.6551V248.5H60.0135ZM63.5947 227.382V221.638H77.7358V227.382H63.5947ZM63.5947 239.732V234.285H75.8682V239.732H63.5947Z" fill="white"/>
<path d="M80.1215 238.238C80.1215 235.825 80.5689 233.831 81.4635 232.252C82.3582 230.672 83.5975 229.489 85.1766 228.707C86.7557 227.925 88.5769 227.534 90.6424 227.534C92.708 227.534 94.4973 227.925 96.0886 228.707C97.68 229.492 98.9242 230.672 99.8189 232.252C100.714 233.831 101.161 235.825 101.161 238.238C101.161 240.651 100.714 242.609 99.8189 244.188C98.9242 245.769 97.68 246.95 96.0886 247.732C94.4973 248.514 92.6811 248.906 90.6424 248.906C88.6037 248.906 86.7509 248.514 85.1595 247.732C83.5682 246.948 82.3289 245.767 81.4464 244.188C80.564 242.609 80.1215 240.626 80.1215 238.238ZM86.7997 238.238C86.7997 240.179 87.1175 241.646 87.7506 242.64C88.3862 243.635 89.3493 244.134 90.6424 244.134C91.9355 244.134 92.9011 243.638 93.5342 242.64C94.1697 241.646 94.4851 240.179 94.4851 238.238C94.4851 236.297 94.1673 234.794 93.5342 233.799C92.9011 232.804 91.9355 232.305 90.6424 232.305C89.3493 232.305 88.3862 232.804 87.7506 233.799C87.1151 234.794 86.7997 236.275 86.7997 238.238Z" fill="white"/>
<path d="M105.642 248.5V235.366C105.642 234.87 105.634 234.229 105.622 233.444C105.61 232.66 105.571 231.89 105.51 231.13C105.446 230.372 105.365 229.768 105.268 229.321L105.38 229.022C106.101 228.773 106.915 228.551 107.824 228.35C108.731 228.152 109.741 227.984 110.846 227.847C111.953 227.71 113.166 227.641 114.483 227.641C114.857 227.641 115.361 227.654 115.994 227.678C116.627 227.705 117.306 227.778 118.028 227.903V233.051H117.617C117.194 232.951 116.742 232.87 116.255 232.809C115.771 232.748 115.292 232.716 114.818 232.716C113.997 232.716 113.227 232.787 112.506 232.921C111.784 233.058 111.176 233.239 110.677 233.462L111.572 232.007C111.995 232.604 112.207 233.875 112.207 235.813V248.497H105.642V248.5Z" fill="white"/>
<path d="M132.242 248.947C130.949 248.947 129.68 248.81 128.436 248.536C127.192 248.263 126.08 247.784 125.097 247.099C124.114 246.417 123.337 245.471 122.765 244.264C122.193 243.058 121.907 241.509 121.907 239.619V234.322C121.907 233.823 121.895 233.19 121.87 232.42C121.846 231.65 121.807 230.897 121.758 230.162C121.706 229.428 121.621 228.837 121.496 228.389L121.645 228.091H128.473V239.433C128.473 240.577 128.654 241.467 129.013 242.1C129.375 242.733 129.871 243.171 130.506 243.406C131.142 243.64 131.892 243.76 132.763 243.76C133.459 243.76 134.119 243.679 134.74 243.518C135.361 243.357 135.921 243.2 136.42 243.054L135.525 244.471C135.351 244.097 135.227 243.613 135.151 243.017C135.075 242.42 135.038 241.672 135.038 240.778V234.324C135.038 233.826 135.026 233.193 135.002 232.423C134.975 231.653 134.933 230.9 134.872 230.164C134.811 229.431 134.728 228.839 134.63 228.392L134.743 228.094H141.607V240.665C141.607 241.164 141.614 241.804 141.626 242.587C141.638 243.371 141.675 244.134 141.739 244.882C141.8 245.628 141.883 246.224 141.981 246.674L141.868 246.972C141.049 247.322 140.108 247.644 139.052 247.942C137.996 248.241 136.889 248.485 135.733 248.671C134.576 248.857 133.413 248.95 132.244 248.95L132.242 248.947Z" fill="white"/>
<path d="M147.278 248.5V235.889C147.278 235.393 147.27 234.75 147.261 233.968C147.248 233.183 147.209 232.413 147.148 231.653C147.087 230.895 147.004 230.291 146.906 229.844L147.019 229.546C147.84 229.198 148.771 228.873 149.815 228.578C150.861 228.279 151.974 228.03 153.154 227.832C154.335 227.634 155.523 227.534 156.718 227.534C157.914 227.534 159.168 227.671 160.336 227.944C161.504 228.218 162.568 228.697 163.526 229.382C164.484 230.066 165.249 231.017 165.821 232.234C166.393 233.454 166.679 234.997 166.679 236.862V248.502H160.114V237.084C160.114 235.916 159.952 235.021 159.63 234.398C159.307 233.777 158.845 233.342 158.248 233.092C157.652 232.843 156.98 232.718 156.234 232.718C155.489 232.718 154.829 232.806 154.181 232.98C153.533 233.154 152.951 233.33 152.428 233.503L153.36 232.049C153.533 232.423 153.658 232.914 153.731 233.523C153.807 234.131 153.844 234.896 153.844 235.818V248.502H147.278V248.5ZM172.724 248.5V237.082C172.724 235.913 172.561 235.019 172.24 234.395C171.915 233.774 171.456 233.339 170.859 233.09C170.263 232.841 169.554 232.716 168.733 232.716C168.21 232.716 167.682 232.767 167.146 232.865C166.611 232.965 166.12 233.09 165.672 233.237L162.314 229.132C163.308 228.685 164.452 228.306 165.746 227.993C167.039 227.683 168.356 227.529 169.701 227.529C170.894 227.529 172.057 227.654 173.189 227.9C174.321 228.15 175.347 228.604 176.266 229.262C177.186 229.922 177.921 230.861 178.469 232.078C179.016 233.295 179.288 234.889 179.288 236.854V248.495H172.722L172.724 248.5Z" fill="white"/>
<path d="M194.658 248.947C193.365 248.947 192.097 248.81 190.852 248.536C189.611 248.263 188.496 247.784 187.513 247.099C186.531 246.417 185.753 245.471 185.181 244.264C184.609 243.058 184.323 241.509 184.323 239.619V234.322C184.323 233.823 184.311 233.19 184.287 232.42C184.26 231.65 184.223 230.897 184.174 230.162C184.123 229.428 184.037 228.837 183.913 228.389L184.062 228.091H190.889V239.433C190.889 240.577 191.07 241.467 191.429 242.1C191.791 242.733 192.287 243.171 192.923 243.406C193.556 243.643 194.309 243.76 195.179 243.76C195.876 243.76 196.536 243.679 197.157 243.518C197.777 243.357 198.337 243.2 198.836 243.054L197.941 244.471C197.768 244.097 197.643 243.613 197.567 243.017C197.494 242.42 197.455 241.672 197.455 240.778V234.324C197.455 233.826 197.443 233.193 197.418 232.423C197.394 231.653 197.35 230.9 197.289 230.164C197.227 229.431 197.144 228.839 197.047 228.392L197.159 228.094H204.025V240.665C204.025 241.164 204.03 241.804 204.043 242.587C204.055 243.371 204.091 244.134 204.155 244.882C204.216 245.628 204.297 246.224 204.397 246.674L204.285 246.972C203.463 247.322 202.525 247.644 201.469 247.942C200.41 248.241 199.305 248.485 198.147 248.671C196.99 248.857 195.827 248.95 194.658 248.95V248.947Z" fill="white"/>
</svg>
