<svg width="138" height="138" viewBox="0 0 138 138" fill="none" xmlns="http://www.w3.org/2000/svg">
<path d="M69 23.1725C73.0345 23.1725 76.3051 19.9019 76.3051 15.8674C76.3051 11.833 73.0345 8.56238 69 8.56238C64.9655 8.56238 61.6949 11.833 61.6949 15.8674C61.6949 19.9019 64.9655 23.1725 69 23.1725Z" fill="#0A6E38"/>
<path d="M101.104 50.614L105.901 55.4683L89.3052 71.8686C87.4192 73.7329 86.3573 76.2731 86.3573 78.9258V82.8217H79.5314V58.19C79.5314 52.8949 81.6896 47.725 85.4565 44.0054L101.241 28.4088L106.038 33.2631L90.2558 48.8596C87.7782 51.3066 86.3586 54.7068 86.3586 58.19V65.1858L101.105 50.6153L101.104 50.614Z" fill="#42AB5D"/>
<path d="M36.8958 50.614L32.0991 55.4683L48.6948 71.8686C50.5808 73.7329 51.6427 76.2731 51.6427 78.9258V82.8217H58.4686V58.19C58.4686 52.8949 56.3104 47.725 52.5435 44.0054L36.7591 28.4088L31.9623 33.2631L47.7442 48.8596C50.2218 51.3066 51.6414 54.7068 51.6414 58.19V65.1858L36.8946 50.6153L36.8958 50.614Z" fill="#42AB5D"/>
<path d="M94.8775 22.0915L76.2539 40.7152C73.7776 43.1928 72.4129 46.4856 72.4129 49.9893V82.8205H65.587V49.9893C65.587 46.4856 64.2224 43.1928 61.746 40.7152L43.1224 22.0915L47.9486 17.2654L66.5722 35.889C67.482 36.7988 68.2934 37.7827 69 38.8253C69.7066 37.7827 70.5167 36.7988 71.4278 35.8864L90.0514 17.2654L94.8775 22.0915Z" fill="#42AB5D"/>
<path d="M2.32172 95.1216H5.79344V109.163H2.32172V95.1216ZM4.05694 93.8336C3.66722 93.8336 3.33883 93.7109 3.07177 93.463C2.80472 93.2164 2.67183 92.8778 2.67183 92.4485C2.67183 92.0191 2.80472 91.6818 3.07177 91.4339C3.33755 91.1873 3.66594 91.0634 4.05694 91.0634C4.44794 91.0634 4.77505 91.1873 5.0421 91.4339C5.30788 91.6818 5.44205 92.0268 5.44205 92.4676C5.44205 92.9085 5.30788 93.2317 5.0421 93.472C4.77633 93.7122 4.44794 93.8323 4.05694 93.8323V93.8336Z" fill="#0A6E38"/>
<path d="M8.75788 109.163V102.571C8.75788 102.312 8.75404 101.976 8.74766 101.567C8.74127 101.157 8.72082 100.754 8.68888 100.357C8.65566 99.9606 8.61349 99.6449 8.56238 99.4111L8.62116 99.2552C9.05049 99.0738 9.54116 98.9038 10.0932 98.7492C10.6464 98.5933 11.2304 98.463 11.8488 98.3595C12.466 98.256 13.0806 98.2036 13.6914 98.2036C14.3673 98.2036 15.0241 98.2752 15.6617 98.4183C16.298 98.5614 16.8743 98.8118 17.388 99.1696C17.9017 99.5274 18.308 100.024 18.607 100.661C18.906 101.298 19.0555 102.105 19.0555 103.08V109.164H15.6234V103.196C15.6234 102.585 15.5327 102.117 15.3499 101.792C15.1672 101.467 14.9117 101.24 14.5794 101.109C14.2485 100.979 13.8677 100.914 13.4384 100.914C13.0614 100.914 12.7037 100.96 12.3663 101.051C12.0277 101.141 11.7236 101.233 11.4502 101.324L11.937 100.564C12.0277 100.759 12.0929 101.016 12.1325 101.334C12.1708 101.652 12.1913 102.052 12.1913 102.534V109.164H8.75916L8.75788 109.163Z" fill="#0A6E38"/>
<path d="M21.4143 106.024H21.5702C22.0378 106.218 22.6039 106.394 23.267 106.55C23.9302 106.706 24.5934 106.784 25.2565 106.784C25.5159 106.784 25.7574 106.774 25.9785 106.754C26.1995 106.735 26.3912 106.699 26.5535 106.647C26.7158 106.595 26.8423 106.51 26.9343 106.394C27.025 106.277 27.071 106.121 27.071 105.926C27.071 105.64 26.9509 105.445 26.7107 105.341C26.4704 105.238 26.0513 105.134 25.4533 105.029L24.5755 104.874C23.5878 104.692 22.8032 104.373 22.2257 103.918C21.6468 103.463 21.358 102.766 21.358 101.831C21.358 101.155 21.5395 100.547 21.9037 100.008C22.2678 99.4686 22.8403 99.0456 23.6197 98.7402C24.4004 98.4348 25.4073 98.2815 26.6429 98.2815C27.2282 98.2815 27.7648 98.3134 28.2517 98.3786C28.7385 98.4438 29.2292 98.5486 29.7237 98.6904V101.401H29.5678C29.0349 101.194 28.5149 101.047 28.0076 100.962C27.5003 100.878 27.0199 100.836 26.565 100.836C25.967 100.836 25.4993 100.897 25.1607 101.021C24.8221 101.145 24.6534 101.369 24.6534 101.693C24.6534 101.941 24.7863 102.116 25.0534 102.22C25.3192 102.323 25.7063 102.422 26.2136 102.512L27.1106 102.668C27.7214 102.773 28.2772 102.942 28.7781 103.175C29.279 103.411 29.6789 103.738 29.9779 104.161C30.2769 104.583 30.4264 105.127 30.4264 105.79C30.4264 106.986 29.9805 107.874 29.0899 108.451C28.1993 109.03 26.8576 109.319 25.0623 109.319C24.4515 109.319 23.8203 109.267 23.1712 109.163C22.5208 109.06 21.9356 108.929 21.4155 108.773V106.024H21.4143Z" fill="#0A6E38"/>
<path d="M37.0747 109.397C35.3587 109.397 34.0643 109.14 33.1941 108.626C32.3227 108.113 31.8869 107.231 31.8869 105.984C31.8869 105.19 32.085 104.548 32.4824 104.053C32.8785 103.56 33.4279 103.198 34.1307 102.971C34.8322 102.743 35.6321 102.63 36.5291 102.63C36.9712 102.63 37.3737 102.657 37.7379 102.708C38.102 102.76 38.4458 102.825 38.7716 102.903V104.912C38.5761 104.847 38.3167 104.788 37.9922 104.736C37.6663 104.683 37.3545 104.658 37.0555 104.658C36.3668 104.658 35.8557 104.755 35.5248 104.95C35.1925 105.146 35.0277 105.47 35.0277 105.926C35.0277 106.383 35.1938 106.699 35.5248 106.882C35.8557 107.065 36.3272 107.156 36.938 107.156C37.3405 107.156 37.7315 107.113 38.1084 107.029C38.4854 106.945 38.8035 106.799 39.0642 106.591L38.6745 107.547C38.5838 107.338 38.5109 107.149 38.4598 106.981C38.4074 106.812 38.3691 106.633 38.3423 106.444C38.3167 106.256 38.3001 106.029 38.2937 105.762C38.2873 105.496 38.2835 105.161 38.2835 104.757V102.709C38.2835 102.176 38.1928 101.766 38.01 101.481C37.8273 101.195 37.5526 101.003 37.1808 100.906C36.8102 100.809 36.3451 100.76 35.7867 100.76C35.2283 100.76 34.698 100.809 34.1972 100.906C33.6963 101.003 33.2899 101.123 32.9782 101.268H32.7827V98.6533C33.2503 98.523 33.7742 98.4169 34.353 98.3313C34.9319 98.247 35.5452 98.2048 36.1956 98.2048C36.9891 98.2048 37.7174 98.2764 38.3793 98.4195C39.0425 98.5626 39.6175 98.8067 40.1056 99.1517C40.5924 99.4967 40.9668 99.9707 41.2275 100.575C41.4869 101.179 41.6172 101.956 41.6172 102.906V105.266C41.6172 105.539 41.6236 105.877 41.6364 106.28C41.6492 106.683 41.6683 107.08 41.6952 107.47C41.7207 107.86 41.7667 108.173 41.8319 108.407L41.7539 108.562C41.299 108.731 40.8173 108.878 40.3113 109.001C39.8053 109.123 39.2776 109.222 38.732 109.293C38.1864 109.365 37.6331 109.401 37.0747 109.401V109.397Z" fill="#0A6E38"/>
<path d="M44.4271 109.163V102.571C44.4271 102.312 44.4232 101.976 44.4168 101.567C44.4105 101.157 44.39 100.754 44.3581 100.357C44.3248 99.9606 44.2827 99.6449 44.2316 99.4111L44.2903 99.2552C44.7197 99.0738 45.2103 98.9038 45.7623 98.7492C46.3156 98.5933 46.8996 98.463 47.518 98.3595C48.1352 98.256 48.7498 98.2036 49.3606 98.2036C50.0365 98.2036 50.6933 98.2752 51.3309 98.4183C51.9672 98.5614 52.5435 98.8118 53.0572 99.1696C53.5708 99.5274 53.9772 100.024 54.2762 100.661C54.5752 101.298 54.7247 102.105 54.7247 103.08V109.164H51.2926V103.196C51.2926 102.585 51.2018 102.117 51.0191 101.792C50.8364 101.467 50.5808 101.24 50.2486 101.109C49.9177 100.979 49.5369 100.914 49.1076 100.914C48.7306 100.914 48.3728 100.96 48.0355 101.051C47.6969 101.141 47.3928 101.233 47.1193 101.324L47.6062 100.564C47.6969 100.759 47.7621 101.016 47.8017 101.334C47.8413 101.652 47.8605 102.052 47.8605 102.534V109.164H44.4283L44.4271 109.163Z" fill="#0A6E38"/>
<path d="M62.2137 95.1216H65.6854V109.163H62.2137V95.1216ZM63.9489 93.8336C63.5592 93.8336 63.2308 93.7109 62.9638 93.463C62.6967 93.2164 62.5638 92.8778 62.5638 92.4485C62.5638 92.0191 62.6967 91.6818 62.9638 91.4339C63.2295 91.1873 63.5579 91.0634 63.9489 91.0634C64.3399 91.0634 64.667 91.1873 64.9341 91.4339C65.1999 91.6818 65.334 92.0268 65.334 92.4676C65.334 92.9085 65.1999 93.2317 64.9341 93.472C64.6683 93.7122 64.3399 93.8323 63.9489 93.8323V93.8336Z" fill="#0A6E38"/>
<path d="M68.6499 109.163V102.571C68.6499 102.312 68.646 101.976 68.6397 101.567C68.6333 101.157 68.6128 100.754 68.5809 100.357C68.5477 99.9606 68.5055 99.6449 68.4544 99.4111L68.5132 99.2552C68.9425 99.0738 69.4332 98.9038 69.9852 98.7492C70.5384 98.5933 71.1237 98.463 71.7408 98.3595C72.358 98.256 72.9726 98.2036 73.5834 98.2036C74.2593 98.2036 74.9161 98.2752 75.5537 98.4183C76.19 98.5614 76.7663 98.8118 77.28 99.1696C77.7937 99.5274 78.2 100.024 78.4977 100.661C78.7967 101.298 78.9462 102.105 78.9462 103.08V109.164H75.5141V103.196C75.5141 102.585 75.4234 102.117 75.2407 101.792C75.0592 101.467 74.8024 101.24 74.4702 101.109C74.1379 100.979 73.7584 100.914 73.3291 100.914C72.9522 100.914 72.5944 100.96 72.257 101.051C71.9184 101.141 71.613 101.233 71.3409 101.324L71.8277 100.564C71.9184 100.759 71.9836 101.016 72.0232 101.334C72.0615 101.652 72.082 102.052 72.082 102.534V109.164H68.6499V109.163Z" fill="#0A6E38"/>
<path d="M85.2648 109.163H81.8327V97.5787C81.8327 97.318 81.8289 96.9909 81.8238 96.5935C81.8174 96.1974 81.7969 95.8077 81.765 95.4231C81.7331 95.0398 81.6896 94.7305 81.6385 94.4967L81.6973 94.3408H85.2661V109.163H85.2648ZM84.6604 103.566L88.8924 98.4962H92.4996V98.73C92.3693 98.8335 92.207 98.9907 92.0128 99.1977C91.8185 99.4059 91.6192 99.6308 91.4186 99.8698C91.2167 100.11 91.025 100.335 90.8436 100.542L87.2748 104.462L87.2939 102.278L91.0774 107.231C91.3241 107.557 91.6013 107.881 91.9067 108.207C92.2121 108.532 92.4562 108.772 92.6376 108.929V109.163H88.7366L84.6604 103.565V103.566Z" fill="#0A6E38"/>
<path d="M94.1198 109.163V101.752C94.1198 101.491 94.116 101.16 94.1096 100.758C94.1032 100.355 94.0828 99.9618 94.0508 99.5772C94.0176 99.1938 93.9754 98.8846 93.9243 98.6508L93.9831 98.4949H97.5519V109.162H94.1198V109.163ZM95.8346 96.9552C95.3018 96.9552 94.866 96.8019 94.5274 96.4965C94.1888 96.1911 94.0201 95.7515 94.0201 95.1804C94.0201 94.6092 94.1888 94.1696 94.5274 93.8642C94.866 93.5589 95.3005 93.4055 95.8346 93.4055C96.3687 93.4055 96.8223 93.5589 97.1609 93.8642C97.4995 94.1696 97.6682 94.6092 97.6682 95.1804C97.6682 95.7515 97.4995 96.1911 97.1609 96.4965C96.8223 96.8019 96.3815 96.9552 95.8346 96.9552Z" fill="#0A6E38"/>
<path d="M100.068 106.024H100.224C100.691 106.218 101.259 106.394 101.921 106.55C102.584 106.706 103.247 106.784 103.91 106.784C104.17 106.784 104.411 106.774 104.632 106.754C104.852 106.735 105.045 106.699 105.207 106.647C105.369 106.595 105.496 106.51 105.587 106.394C105.679 106.277 105.723 106.121 105.723 105.926C105.723 105.64 105.603 105.445 105.364 105.341C105.123 105.238 104.704 105.134 104.106 105.029L103.228 104.874C102.239 104.692 101.457 104.373 100.878 103.918C100.299 103.463 100.01 102.766 100.01 101.831C100.01 101.155 100.192 100.547 100.556 100.008C100.92 99.4686 101.493 99.0456 102.273 98.7402C103.053 98.4348 104.06 98.2815 105.295 98.2815C105.88 98.2815 106.416 98.3134 106.904 98.3786C107.391 98.4438 107.881 98.5486 108.376 98.6904V101.401H108.219C107.686 101.194 107.167 101.047 106.66 100.962C106.153 100.878 105.671 100.836 105.216 100.836C104.618 100.836 104.15 100.897 103.813 101.021C103.474 101.145 103.306 101.369 103.306 101.693C103.306 101.941 103.439 102.116 103.706 102.22C103.971 102.323 104.359 102.421 104.866 102.512L105.763 102.668C106.374 102.773 106.93 102.942 107.43 103.175C107.931 103.411 108.331 103.738 108.63 104.161C108.929 104.583 109.079 105.127 109.079 105.79C109.079 106.986 108.634 107.874 107.742 108.451C106.852 109.03 105.51 109.319 103.716 109.319C103.105 109.319 102.473 109.267 101.825 109.163C101.174 109.06 100.589 108.929 100.069 108.773V106.024H100.068ZM105.235 108.695V109.826C105.911 109.904 106.43 110.132 106.795 110.509C107.16 110.885 107.34 111.348 107.34 111.894C107.34 112.401 107.209 112.81 106.95 113.123C106.691 113.435 106.348 113.662 105.926 113.805C105.504 113.948 105.045 114.02 104.552 114.02C104.227 114.02 103.931 114.001 103.665 113.961C103.399 113.921 103.149 113.864 102.913 113.785V112.323H102.991C103.225 112.401 103.448 112.46 103.656 112.499C103.863 112.538 104.111 112.558 104.397 112.558C104.812 112.558 105.101 112.49 105.263 112.354C105.427 112.217 105.509 112.038 105.509 111.817C105.509 111.544 105.359 111.333 105.06 111.183C104.761 111.034 104.313 110.958 103.715 110.958V108.697H105.236L105.235 108.695Z" fill="#0A6E38"/>
<path d="M115.728 109.397C114.012 109.397 112.718 109.14 111.846 108.626C110.975 108.113 110.541 107.231 110.541 105.984C110.541 105.19 110.739 104.548 111.135 104.053C111.532 103.56 112.08 103.198 112.783 102.971C113.485 102.743 114.284 102.63 115.181 102.63C115.624 102.63 116.026 102.657 116.39 102.708C116.754 102.76 117.099 102.825 117.424 102.903V104.912C117.23 104.847 116.969 104.788 116.643 104.736C116.317 104.683 116.007 104.658 115.708 104.658C115.018 104.658 114.508 104.755 114.177 104.95C113.846 105.146 113.68 105.47 113.68 105.926C113.68 106.383 113.846 106.699 114.177 106.882C114.509 107.065 114.981 107.156 115.592 107.156C115.994 107.156 116.384 107.113 116.761 107.029C117.138 106.945 117.456 106.799 117.717 106.591L117.327 107.547C117.236 107.338 117.163 107.149 117.112 106.981C117.06 106.812 117.021 106.633 116.995 106.444C116.968 106.256 116.952 106.029 116.945 105.762C116.938 105.496 116.936 105.161 116.936 104.757V102.709C116.936 102.176 116.845 101.766 116.662 101.481C116.481 101.195 116.204 101.003 115.833 100.906C115.463 100.809 114.997 100.76 114.439 100.76C113.881 100.76 113.35 100.809 112.85 100.906C112.349 101.003 111.942 101.123 111.631 101.268H111.436V98.6533C111.904 98.523 112.428 98.4169 113.007 98.3313C113.584 98.247 114.199 98.2048 114.849 98.2048C115.641 98.2048 116.37 98.2764 117.033 98.4195C117.696 98.5626 118.271 98.8067 118.759 99.1517C119.246 99.4967 119.62 99.9707 119.881 100.575C120.141 101.179 120.271 101.956 120.271 102.906V105.266C120.271 105.539 120.277 105.877 120.29 106.28C120.303 106.683 120.322 107.08 120.349 107.47C120.374 107.86 120.42 108.173 120.486 108.407L120.408 108.562C119.953 108.731 119.472 108.878 118.965 109.001C118.458 109.125 117.931 109.222 117.384 109.293C116.839 109.365 116.285 109.401 115.727 109.401L115.728 109.397Z" fill="#0A6E38"/>
<path d="M121.734 101.148V98.4949H129.457V101.148H121.734ZM123.49 109.163V98.6712C123.49 97.6056 123.694 96.7379 124.103 96.0671C124.513 95.3976 125.091 94.9069 125.838 94.5951C126.586 94.2833 127.46 94.1274 128.461 94.1274C128.826 94.1274 129.15 94.1466 129.436 94.1862C129.723 94.2245 129.963 94.2833 130.158 94.3613V96.8964H129.944C129.8 96.8312 129.634 96.7763 129.447 96.7303C129.257 96.6856 129.04 96.6625 128.794 96.6625C128.169 96.6625 127.701 96.8184 127.389 97.1302C127.078 97.442 126.92 97.9697 126.92 98.7108V109.164H123.488L123.49 109.163Z" fill="#0A6E38"/>
<path d="M132.246 109.163V101.752C132.246 101.491 132.242 101.164 132.237 100.767C132.231 100.371 132.21 99.9771 132.178 99.5874C132.146 99.1976 132.103 98.8846 132.052 98.6508L132.13 98.4949H135.68V109.162H132.247L132.246 109.163Z" fill="#0A6E38"/>
<path d="M31.3707 129.898V115.856H34.8424V129.898H31.3707ZM33.2427 118.859V115.856H40.6346V118.859H33.2427ZM33.2427 125.314V122.467H39.6584V125.314H33.2427Z" fill="#0A6E38"/>
<path d="M41.8817 124.533C41.8817 123.272 42.1155 122.23 42.5832 121.404C43.0509 120.579 43.6987 119.96 44.5242 119.551C45.3496 119.143 46.3015 118.938 47.3813 118.938C48.461 118.938 49.3963 119.143 50.2282 119.551C51.06 119.962 51.7104 120.579 52.178 121.404C52.6457 122.23 52.8795 123.272 52.8795 124.533C52.8795 125.795 52.6457 126.818 52.178 127.644C51.7104 128.47 51.06 129.088 50.2282 129.496C49.3963 129.905 48.4469 130.11 47.3813 130.11C46.3156 130.11 45.347 129.905 44.5152 129.496C43.6834 129.086 43.0355 128.469 42.5743 127.644C42.113 126.818 41.8817 125.782 41.8817 124.533ZM45.3726 124.533C45.3726 125.548 45.5387 126.315 45.8697 126.835C46.2019 127.355 46.7053 127.615 47.3813 127.615C48.0572 127.615 48.5619 127.356 48.8929 126.835C49.2251 126.315 49.3899 125.548 49.3899 124.533C49.3899 123.519 49.2238 122.733 48.8929 122.213C48.5619 121.693 48.0572 121.432 47.3813 121.432C46.7053 121.432 46.2019 121.693 45.8697 122.213C45.5374 122.733 45.3726 123.507 45.3726 124.533Z" fill="#0A6E38"/>
<path d="M55.2217 129.898V123.032C55.2217 122.773 55.2179 122.438 55.2115 122.028C55.2051 121.618 55.1847 121.215 55.1527 120.818C55.1195 120.422 55.0773 120.106 55.0262 119.872L55.085 119.716C55.4619 119.586 55.8874 119.47 56.3628 119.365C56.8368 119.261 57.3645 119.173 57.9421 119.102C58.5209 119.03 59.1547 118.994 59.8434 118.994C60.0389 118.994 60.3022 119.001 60.6331 119.013C60.964 119.027 61.3193 119.066 61.6962 119.131V121.822H61.4815C61.2605 121.77 61.0241 121.727 60.7698 121.695C60.5168 121.664 60.2664 121.647 60.0185 121.647C59.5892 121.647 59.1867 121.684 58.8097 121.754C58.4328 121.826 58.1146 121.92 57.8539 122.037L58.3216 121.276C58.5427 121.588 58.6538 122.253 58.6538 123.266V129.896H55.2217V129.898Z" fill="#0A6E38"/>
<path d="M69.1265 130.131C68.4506 130.131 67.7874 130.06 67.137 129.917C66.4866 129.774 65.9052 129.523 65.3916 129.165C64.8779 128.809 64.4716 128.314 64.1726 127.683C63.8736 127.053 63.7241 126.243 63.7241 125.255V122.486C63.7241 122.226 63.7177 121.895 63.7049 121.492C63.6921 121.09 63.6717 120.696 63.6461 120.312C63.6193 119.928 63.5746 119.619 63.5094 119.385L63.5873 119.229H67.1562V125.158C67.1562 125.756 67.2507 126.221 67.4386 126.552C67.6277 126.883 67.8871 127.112 68.2193 127.235C68.5515 127.357 68.9438 127.42 69.3987 127.42C69.7628 127.42 70.1078 127.378 70.4324 127.293C70.757 127.209 71.0496 127.127 71.3102 127.051L70.8426 127.792C70.7518 127.596 70.6867 127.343 70.6471 127.031C70.6075 126.72 70.5883 126.329 70.5883 125.861V122.488C70.5883 122.227 70.5819 121.896 70.5691 121.494C70.5551 121.091 70.5333 120.698 70.5014 120.313C70.4695 119.93 70.426 119.62 70.3749 119.387L70.4337 119.231H74.0217V125.802C74.0217 126.063 74.0255 126.398 74.0319 126.807C74.0383 127.217 74.0575 127.615 74.0907 128.006C74.1226 128.396 74.1661 128.708 74.2172 128.943L74.1584 129.099C73.7303 129.282 73.2384 129.45 72.6864 129.606C72.1344 129.762 71.5556 129.89 70.9512 129.987C70.3468 130.084 69.7386 130.133 69.1278 130.133L69.1265 130.131Z" fill="#0A6E38"/>
<path d="M76.9861 129.898V123.306C76.9861 123.046 76.9823 122.71 76.9771 122.301C76.9708 121.891 76.9503 121.489 76.9184 121.091C76.8864 120.695 76.843 120.379 76.7919 120.146L76.8507 119.99C77.28 119.808 77.7668 119.638 78.3124 119.484C78.8593 119.328 79.4407 119.197 80.0579 119.094C80.675 118.99 81.296 118.938 81.9209 118.938C82.5457 118.938 83.2012 119.01 83.812 119.153C84.4228 119.296 84.9786 119.546 85.4795 119.904C85.9804 120.262 86.3803 120.759 86.6793 121.395C86.9783 122.033 87.1278 122.839 87.1278 123.814V129.899H83.6957V123.93C83.6957 123.32 83.6114 122.852 83.4427 122.526C83.274 122.202 83.0325 121.974 82.7208 121.844C82.409 121.713 82.0576 121.648 81.6679 121.648C81.2782 121.648 80.9331 121.694 80.5945 121.785C80.2559 121.876 79.9518 121.968 79.6784 122.058L80.1652 121.298C80.2559 121.494 80.3211 121.75 80.3594 122.069C80.399 122.387 80.4182 122.787 80.4182 123.268V129.899H76.9861V129.898ZM90.2878 129.898V123.929C90.2878 123.318 90.2021 122.851 90.0348 122.525C89.8648 122.2 89.6246 121.973 89.3128 121.842C89.001 121.712 88.6305 121.647 88.2012 121.647C87.9277 121.647 87.6517 121.674 87.3719 121.725C87.092 121.777 86.8352 121.842 86.6014 121.919L84.8457 119.774C85.3658 119.54 85.9638 119.342 86.6397 119.178C87.3156 119.016 88.0044 118.936 88.7071 118.936C89.3307 118.936 89.9389 119.001 90.5305 119.13C91.1221 119.26 91.6588 119.498 92.1393 119.841C92.6197 120.186 93.0043 120.677 93.2905 121.313C93.5768 121.95 93.7186 122.783 93.7186 123.81V129.895H90.2865L90.2878 129.898Z" fill="#0A6E38"/>
<path d="M101.753 130.131C101.077 130.131 100.414 130.06 99.7638 129.917C99.1147 129.774 98.532 129.523 98.0183 129.165C97.5047 128.809 97.0983 128.314 96.7993 127.683C96.5003 127.053 96.3508 126.243 96.3508 125.255V122.486C96.3508 122.226 96.3445 121.895 96.3317 121.492C96.3176 121.09 96.2984 120.696 96.2729 120.312C96.2461 119.928 96.2013 119.619 96.1362 119.385L96.2141 119.229H99.7829V125.158C99.7829 125.756 99.8775 126.221 100.065 126.552C100.254 126.883 100.514 127.112 100.846 127.235C101.177 127.359 101.571 127.42 102.025 127.42C102.39 127.42 102.735 127.378 103.059 127.293C103.384 127.209 103.676 127.127 103.937 127.051L103.469 127.792C103.379 127.596 103.313 127.343 103.274 127.031C103.236 126.72 103.215 126.329 103.215 125.861V122.488C103.215 122.227 103.209 121.896 103.196 121.494C103.183 121.091 103.16 120.698 103.128 120.313C103.096 119.93 103.053 119.62 103.002 119.387L103.06 119.231H106.65V125.802C106.65 126.063 106.652 126.398 106.659 126.807C106.665 127.217 106.684 127.615 106.717 128.006C106.749 128.396 106.792 128.708 106.844 128.943L106.785 129.099C106.356 129.282 105.865 129.45 105.313 129.606C104.76 129.762 104.182 129.89 103.577 129.987C102.972 130.084 102.364 130.133 101.753 130.133V130.131Z" fill="#0A6E38"/>
</svg>
